
<svg version="1.1" xmlns="http://www.w3.org/2000/svg" width="2480" height="3508" viewBox="0 0 2480 3508" preserveAspectRatio="xMidYMid meet">
<path d="M0 0 C818.4 0 1636.8 0 2480 0 C2480 1157.64 2480 2315.28 2480 3508 C1661.6 3508 843.2 3508 0 3508 C0 2350.36 0 1192.72 0 0 Z " fill="#FEFEFE" transform="translate(0,0)" />
<path d="M0 0 C1.40266719 0.02647772 2.80533647 0.05284466 4.20800781 0.07910156 C46.20860509 0.90309646 87.660618 4.51841094 129 12 C130.12825195 12.20351074 131.25650391 12.40702148 132.41894531 12.61669922 C139.64311687 13.94253911 146.8261089 15.42560983 154 17 C154.65836853 17.14397217 155.31673706 17.28794434 155.99505615 17.4362793 C230.23068567 33.720362 302.3170841 60.44859796 368.24853516 98.41699219 C370.83177859 99.90321671 373.42076578 101.37883201 376.01171875 102.8515625 C412.02248246 123.39710746 446.19217903 147.41506088 478 174 C478.51369141 174.42877441 479.02738281 174.85754883 479.55664062 175.29931641 C486.06570056 180.74090595 492.47880891 186.26538302 498.7578125 191.97265625 C500.71208424 193.73967199 502.69059737 195.46913529 504.6875 197.1875 C515.87427757 206.98694098 526.47665803 217.37485029 537 227.875 C537.54220184 228.41461365 538.08440369 228.95422729 538.64303589 229.51019287 C544.09889583 234.94550596 549.4898929 240.39358584 554.49707031 246.25195312 C556.87357124 249.01604453 559.38162751 251.65427297 561.875 254.3125 C566.33701824 259.10861394 570.56785648 264.02841295 574.66796875 269.140625 C576.82678532 271.78761617 579.04304445 274.36636543 581.28881836 276.93896484 C587.17617265 283.69513075 592.6324043 290.68320983 597.94921875 297.89453125 C599.95455624 300.61187621 601.99592457 303.29339641 604.08203125 305.94921875 C612.6923873 316.93240231 620.44910047 328.39905331 628.08496094 340.07666016 C629.85002544 342.77106127 631.62928149 345.45535515 633.4140625 348.13671875 C645.91861894 367.01311965 657.01886929 386.70037184 667.72607422 406.64013672 C668.82516963 408.6761383 669.93994132 410.70172785 671.06640625 412.72265625 C681.70839658 432.07374931 690.60780953 452.58821223 699 473 C699.41427246 474.00305176 699.82854492 475.00610352 700.25537109 476.03955078 C708.4651248 496.04873577 715.39687089 516.41464566 722 537 C722.32339355 538.00498535 722.64678711 539.0099707 722.97998047 540.04541016 C724.77179679 545.66582164 726.41969892 551.31683166 728 557 C728.28230469 557.99322266 728.56460937 558.98644531 728.85546875 560.00976562 C739.4285261 597.55081101 746.43293387 636.21329561 750.76611328 674.95196533 C750.99769667 676.97983082 751.24513945 679.00521078 751.49609375 681.03076172 C754.74121771 707.73399544 755.4091184 734.38833769 755.375 761.25 C755.37476082 762.08848606 755.37452164 762.92697212 755.37427521 763.79086685 C755.35608199 814.38418794 751.46928735 864.75325537 740.59570312 914.27001953 C739.99596746 917.01848027 739.42479772 919.77163665 738.859375 922.52734375 C727.0438744 979.4701763 707.95224176 1034.70447423 683.25976562 1087.30859375 C682.07208375 1089.84599782 680.90096375 1092.39034502 679.734375 1094.9375 C674.50133568 1106.28493263 668.67066146 1117.25304515 662.58251953 1128.16308594 C661.00420241 1130.99246653 659.43756054 1133.82810797 657.87109375 1136.6640625 C629.5388027 1187.66830568 594.65790188 1235.45730173 554.78588867 1278.07055664 C553.4015299 1279.56619401 552.02899435 1281.07277928 550.66137695 1282.58374023 C543.98957655 1289.93945342 537.10848263 1297.04737226 530.07397461 1304.05639648 C528.30008997 1305.82487219 526.53168223 1307.59870044 524.76367188 1309.37304688 C519.54593086 1314.59384253 514.32794033 1319.74825999 508.70629883 1324.53881836 C505.95245376 1326.8970617 503.33135927 1329.39513011 500.6875 1331.875 C495.87244557 1336.35420159 490.93468156 1340.6076977 485.8046875 1344.7265625 C483.25687809 1346.79177848 480.75706551 1348.89975685 478.26635742 1351.03271484 C471.91429229 1356.46924359 465.41258235 1361.65469782 458.73632812 1366.68896484 C456.92899644 1368.05361208 455.12848186 1369.42694872 453.328125 1370.80078125 C429.27143403 1389.08509064 404.07092429 1405.73591955 378 1421 C377.21608887 1421.4640625 376.43217773 1421.928125 375.62451172 1422.40625 C326.23843903 1451.60598093 273.60722088 1473.67950776 219 1491 C217.21770996 1491.56775146 217.21770996 1491.56775146 215.39941406 1492.14697266 C188.20533273 1500.72563447 160.25903948 1507.5093846 132.17431641 1512.43945312 C128.8975109 1513.01809837 125.62691391 1513.6262187 122.35546875 1514.234375 C100.22177256 1518.23915201 77.90012389 1520.60370031 55.52105713 1522.75720215 C53.95475127 1522.90804986 52.3885979 1523.06050092 50.82269287 1523.2154541 C7.21000912 1527.53108928 -37.42078409 1525.93751033 -81 1522 C-82.2698877 1521.88785156 -83.53977539 1521.77570313 -84.84814453 1521.66015625 C-170.59425404 1513.76649537 -256.30735574 1488.7831921 -334 1452 C-334.62197266 1451.70561035 -335.24394531 1451.4112207 -335.88476562 1451.10791016 C-340.63972128 1448.83385644 -345.32507104 1446.43368406 -350 1444 C-351.04913574 1443.4548877 -352.09827148 1442.90977539 -353.17919922 1442.34814453 C-415.67226084 1409.75094887 -474.03413057 1369.80137447 -525.38671875 1321.39453125 C-527.66419459 1319.24778482 -529.95481085 1317.11824795 -532.26953125 1315.01171875 C-538.44270836 1309.39276334 -544.46072758 1303.64172234 -550.375 1297.75 C-551.02911865 1297.10047363 -551.6832373 1296.45094727 -552.35717773 1295.78173828 C-556.20133297 1291.92533895 -559.85650746 1287.95832918 -563.39501953 1283.81933594 C-565.02887589 1281.96726755 -566.73693365 1280.22879676 -568.5 1278.5 C-572.21199457 1274.83717092 -575.60846641 1270.95893845 -579 1267 C-579.86367188 1266.00226563 -580.72734375 1265.00453125 -581.6171875 1263.9765625 C-594.42430285 1249.15652821 -606.68819203 1234.03084868 -618.3203125 1218.26757812 C-619.76344297 1216.31935199 -621.22033351 1214.38325408 -622.6875 1212.453125 C-669.02713772 1151.06370028 -704.28751566 1080.6713731 -729 1008 C-729.40814941 1006.80681152 -729.81629883 1005.61362305 -730.23681641 1004.38427734 C-744.40391505 962.66789283 -754.60987539 919.59182541 -761 876 C-761.15919922 874.9486084 -761.31839844 873.8972168 -761.48242188 872.81396484 C-769.78340255 817.16993975 -771.69692537 760.36187799 -767.18359375 704.28216553 C-766.98788504 701.84940474 -766.79879412 699.4161682 -766.609375 696.98291016 C-764.74446405 673.41170597 -761.79513586 650.24557015 -757.37957764 627.01977539 C-756.76531689 623.75122471 -756.1842406 620.47673757 -755.59765625 617.203125 C-740.69694327 535.49659396 -710.63865693 455.80426593 -669 384 C-668.1013623 382.43620605 -668.1013623 382.43620605 -667.18457031 380.84082031 C-652.88173573 355.98880233 -637.19942492 331.95292967 -620 309 C-619.47390137 308.29665527 -618.94780273 307.59331055 -618.40576172 306.86865234 C-604.13517709 287.85689597 -588.98503641 269.59230698 -573 252 C-571.54110676 250.37550266 -570.08278358 248.7504932 -568.625 247.125 C-567.87347656 246.29226563 -567.12195313 245.45953125 -566.34765625 244.6015625 C-564.76750927 242.85051776 -563.19206505 241.09521899 -561.62109375 239.3359375 C-555.85596748 232.94588915 -549.88795835 226.78346885 -543.8125 220.6875 C-543.06427979 219.9346875 -542.31605957 219.181875 -541.54516602 218.40625 C-537.42125958 214.29371672 -533.21413428 210.34686117 -528.78198242 206.56762695 C-526.94081272 204.94793239 -525.21656643 203.25050693 -523.5 201.5 C-519.83729197 197.7881281 -515.96020571 194.38988482 -512 191 C-510.94517618 190.09260636 -509.89050014 189.18504092 -508.8359375 188.27734375 C-505.83035564 185.6928317 -502.81823428 183.11606638 -499.80371094 180.54199219 C-498.08795684 179.07519428 -496.37582907 177.60425967 -494.6640625 176.1328125 C-487.9118805 170.34813773 -481.01375795 164.79724602 -473.91259766 159.44433594 C-471.7840998 157.8369587 -469.66381155 156.21902508 -467.54296875 154.6015625 C-448.96916573 140.49276047 -429.89774414 127.1761693 -410 115 C-409.22156738 114.52143555 -408.44313477 114.04287109 -407.64111328 113.54980469 C-367.47393074 88.91875268 -325.71361033 68.45690075 -282 51 C-281.29697754 50.71732269 -280.59395508 50.43464539 -279.86962891 50.1434021 C-267.81216082 45.30577443 -255.60971977 41.05974947 -243.25 37.0625 C-242.31656769 36.75940918 -241.38313538 36.45631836 -240.42141724 36.14404297 C-224.08054885 30.85059813 -207.69112269 26.07709136 -191 22 C-189.89495117 21.72752441 -188.78990234 21.45504883 -187.65136719 21.17431641 C-162.35971916 14.98736098 -136.79138297 10.5090317 -111 7 C-109.77700195 6.83113281 -108.55400391 6.66226563 -107.29394531 6.48828125 C-71.67266413 1.64036066 -35.94529345 -0.75091988 0 0 Z " fill="#FEFEFE" transform="translate(1247,590)" />
<path d="M0 0 C1.35703722 -0.00409371 2.71407008 -0.00994034 4.07109312 -0.01737424 C7.8128582 -0.03276697 11.55421062 -0.02319291 15.2959676 -0.00965852 C19.37701941 0.0006845 23.45800885 -0.01220838 27.53905255 -0.02213588 C34.72337069 -0.03638752 41.90756897 -0.0356893 49.09189206 -0.02537931 C59.84707902 -0.01001747 70.60216531 -0.01765383 81.35735197 -0.02982594 C99.68540692 -0.04988613 118.01341916 -0.05087227 136.34148073 -0.04156584 C154.92166672 -0.03219616 173.50182278 -0.03147088 192.08200884 -0.04135031 C193.25442256 -0.04196748 194.42683627 -0.04258465 195.63477768 -0.04322052 C200.40963197 -0.04576189 205.18448622 -0.0483637 209.95934044 -0.05104254 C257.79748318 -0.07785501 305.63560378 -0.07987555 353.47375187 -0.07143771 C360.84823931 -0.07013921 368.22272676 -0.06888503 375.59721422 -0.06768626 C376.26300428 -0.06757722 376.92879434 -0.06746818 377.61475985 -0.06735584 C408.45333464 -0.06235095 439.29190646 -0.0659194 470.13048096 -0.07130451 C473.49364976 -0.07188814 476.85681857 -0.07245365 480.21998737 -0.07301991 C485.61795875 -0.07393059 491.01593013 -0.07484541 496.4139015 -0.07576722 C497.41794344 -0.07593867 497.41794344 -0.07593867 498.44226905 -0.07611359 C502.50490851 -0.07680846 506.56754797 -0.07751151 510.63018744 -0.07821895 C541.5422684 -0.08359385 572.45434945 -0.08755773 603.36643076 -0.09027857 C604.05474323 -0.09033954 604.7430557 -0.09040052 605.45222612 -0.09046334 C650.03640644 -0.09438512 694.62058399 -0.09192669 739.20476389 -0.08503908 C740.64310084 -0.08481823 742.08143778 -0.08459747 743.51977473 -0.08437679 C759.39906795 -0.08193501 775.27836115 -0.0793623 791.15765435 -0.0767414 C791.87443686 -0.07662316 792.59121938 -0.07650491 793.32972258 -0.07638308 C806.4266814 -0.07422211 806.4266814 -0.07422211 812.89654117 -0.07314447 C885.00671803 -0.06114427 957.11688102 -0.05718095 1085.895472 -0.09370111 C1109.73428193 -0.10110346 1133.57309188 -0.10843432 1157.41190195 -0.11535829 C1158.47940226 -0.11566918 1158.47940226 -0.11566918 1159.56846824 -0.11598635 C1204.12905746 -0.12894904 1248.68964395 -0.13581941 1293.25023508 -0.13576502 C1293.93832047 -0.13576478 1294.62640586 -0.13576453 1295.33534232 -0.13576429 C1326.23019286 -0.13573907 1357.12504317 -0.13410981 1388.01989355 -0.13098419 C1398.82521604 -0.12989458 1409.63053853 -0.1289086 1420.43586103 -0.12795333 C1423.12406196 -0.12771512 1425.8122629 -0.12746818 1428.50046384 -0.12721412 C1459.34012895 -0.12431939 1490.17978811 -0.12487373 1521.01945162 -0.13614863 C1522.01750494 -0.13651251 1522.01750494 -0.13651251 1523.03572096 -0.13688375 C1534.40427894 -0.14104401 1545.77283681 -0.14549067 1557.14139469 -0.14991837 C1601.51258354 -0.16706285 1645.88373734 -0.16564925 1690.25492418 -0.14301235 C1695.01483509 -0.1406557 1699.77474603 -0.13837882 1704.534657 -0.13616461 C1705.70285795 -0.1356139 1706.87105891 -0.13506319 1708.07465989 -0.13449579 C1726.60877722 -0.1262098 1745.14284753 -0.13472528 1763.6769587 -0.15014281 C1781.87992479 -0.16493231 1800.08281531 -0.16199669 1818.28577483 -0.13990841 C1828.97156984 -0.12747609 1839.65715233 -0.12884859 1850.34293441 -0.15021999 C1857.42796127 -0.16303455 1864.51282444 -0.15791579 1871.59783418 -0.13783664 C1875.62179806 -0.12694439 1879.64533892 -0.12399795 1883.66928203 -0.14303688 C1887.3180505 -0.16015581 1890.96603074 -0.15440689 1894.61475244 -0.13017907 C1896.54404436 -0.12330652 1898.47337589 -0.14098822 1900.40259 -0.15962918 C1909.74548685 -0.06041197 1909.74548685 -0.06041197 1914.01323274 2.87106181 C1917.0534207 5.73328858 1918.49292916 7.54369128 1919.80833292 11.50254732 C1920.20429339 14.62034535 1920.21783142 17.69291655 1920.19601297 20.83273226 C1920.20139851 21.76396979 1920.20678405 22.69520731 1920.21233279 23.65466416 C1920.22662413 26.77067881 1920.21950564 29.88626935 1920.21238565 33.00230318 C1920.21808859 35.2381109 1920.22505254 37.4739157 1920.23318338 39.7097159 C1920.25113808 45.77992688 1920.24994205 51.84999349 1920.244241 57.92022306 C1920.24115258 62.98745922 1920.24723773 68.05466752 1920.25327975 73.12189972 C1920.26813429 85.75902062 1920.26450506 98.39605449 1920.25241644 111.03316886 C1920.24248418 122.00181875 1920.25542522 132.97029995 1920.27935063 143.93892383 C1920.3037474 155.20877575 1920.31294846 166.47855115 1920.30669791 177.74843609 C1920.30332518 184.07272971 1920.30576452 190.39688394 1920.32294893 196.72115809 C1920.33840203 202.66789204 1920.33448035 208.61430359 1920.31564379 214.56102473 C1920.31195346 216.74310404 1920.31507924 218.92520716 1920.32552958 221.10726458 C1920.33871034 224.08700864 1920.32721726 227.06568082 1920.30953836 230.04537874 C1920.31914337 230.90803235 1920.32874838 231.77068595 1920.33864444 232.65948057 C1920.29076781 236.58380127 1919.9768257 239.79857111 1918.21450758 243.34362036 C1915.47490226 246.94028908 1913.02915732 248.99811716 1908.80833292 250.50254732 C1904.41180909 251.08166322 1900.052302 251.0378646 1895.62307787 251.00394398 C1894.26674224 251.00791188 1892.91041082 251.01363304 1891.55408908 251.02094176 C1887.81427313 251.03598875 1884.07487249 251.02606563 1880.33506734 251.01218196 C1876.25613837 251.00145907 1872.17726968 251.01397678 1868.09834695 251.02352935 C1860.91776796 251.03712118 1853.73731029 251.03576342 1846.5567286 251.02479517 C1835.80714263 251.00844931 1825.05765541 251.01511556 1814.30806724 251.02632574 C1795.98955155 251.04474889 1777.67108023 251.04411449 1759.35256052 251.03320223 C1740.78205067 251.02220715 1722.21157004 251.01986784 1703.64105844 251.02815157 C1702.46925467 251.02866826 1701.29745089 251.02918495 1700.09013791 251.0297173 C1695.31776761 251.03185032 1690.54539734 251.03404514 1685.77302711 251.0363184 C1641.29388437 251.05749065 1596.81476123 251.05890398 1552.33561563 251.0477286 C1551.01685808 251.04739742 1549.69810053 251.04706623 1548.33938063 251.04672502 C1547.3491096 251.04647628 1547.3491096 251.04647628 1546.33883309 251.04622252 C1537.63301565 251.0440365 1528.92719819 251.04189007 1520.22138071 251.03984934 C1519.55593737 251.0396927 1518.89049402 251.03953605 1518.20488573 251.03937466 C1487.38236249 251.03217309 1456.55984185 251.03388244 1425.73731824 251.03757117 C1422.37589933 251.03797036 1419.01448043 251.03835235 1415.65306152 251.03873627 C1405.52160229 251.0398986 1395.39014306 251.04108636 1385.25868384 251.04232666 C1354.36268682 251.04610498 1323.46668977 251.0485058 1292.57069254 251.04971987 C1291.53876107 251.04976108 1291.53876107 251.04976108 1290.4859825 251.04980312 C1245.92500486 251.05155838 1201.36403013 251.04715353 1156.80305338 251.03832155 C1155.73580717 251.03811085 1155.73580717 251.03811085 1154.64700044 251.03789588 C1130.81454536 251.03319033 1106.98209035 251.02816613 1083.14963535 251.02310936 C1011.07699777 251.00782734 939.00437061 250.99945302 810.29281552 251.02357068 C786.46641453 251.02862344 762.64001353 251.03361744 738.81361246 251.03832155 C738.10231602 251.03846253 737.39101958 251.03860351 736.6581687 251.03874876 C692.12076985 251.04756854 647.58337302 251.05149849 603.0459733 251.04971987 C602.35824595 251.04969285 601.6705186 251.04966582 600.96195103 251.04963798 C570.08317548 251.04841115 539.20440014 251.04585806 508.32562481 251.04207786 C498.19860318 251.04083964 488.07158154 251.0396623 477.9445599 251.03850566 C474.58507883 251.03812169 471.22559776 251.03773228 467.8661167 251.03733023 C437.04250486 251.03365265 406.21889653 251.03259352 375.39528513 251.03984934 C374.73026274 251.04000523 374.06524036 251.04016112 373.38006578 251.04032173 C364.6791389 251.04236897 355.97821205 251.04453953 347.27728521 251.04672502 C345.29914888 251.04722179 345.29914888 251.04722179 343.28105021 251.0477286 C341.30654645 251.04822469 341.30654645 251.04822469 339.29215372 251.04873081 C294.944064 251.05975141 250.59599781 251.05573029 206.24791145 251.03460562 C201.49047679 251.0323961 196.73304211 251.0302493 191.9756074 251.02815157 C190.22421758 251.02737033 190.22421758 251.02737033 188.43744616 251.02657331 C169.91298842 251.0186687 151.38855984 251.02419267 132.86410473 251.0352276 C114.67062143 251.04578158 96.47718756 251.04214427 78.28371056 251.02317124 C67.60350918 251.01245962 56.92344297 251.01278377 46.2432479 251.02909763 C39.16192731 251.03882938 32.08071259 251.03421418 24.99940489 251.01763022 C20.97759116 251.00862043 16.95604776 251.00596573 12.93424556 251.02089629 C9.28747234 251.03431844 5.64120513 251.02944841 1.99446431 251.00979746 C0.06618957 251.00415637 -1.862112 251.01815561 -3.79033845 251.03292267 C-13.12803328 250.95286462 -13.12803328 250.95286462 -17.41944948 248.58405316 C-20.69235991 246.1266046 -21.92833353 244.39641942 -23.51344347 240.72893065 C-24.70751299 236.80919616 -24.74208831 233.04173043 -24.69960165 228.96981722 C-24.70584161 228.0409544 -24.71208158 227.11209157 -24.71851063 226.15508139 C-24.73439844 223.05897119 -24.72185273 219.96365287 -24.7092452 216.86753756 C-24.71466814 214.64128575 -24.72179176 212.41503754 -24.73048544 210.1887961 C-24.74870004 204.1537786 -24.74165905 198.11903502 -24.7289691 192.08401281 C-24.71883315 185.76518863 -24.72823632 179.4463877 -24.73451376 173.12756258 C-24.74225362 161.83858039 -24.72983426 150.54973713 -24.70947641 139.26078273 C-24.69160217 129.03247142 -24.69471463 118.8043417 -24.71315145 108.57603365 C-24.73457352 96.68608933 -24.74251743 84.79625524 -24.7307024 72.90628493 C-24.72446821 66.61668231 -24.72363006 60.32720469 -24.73684835 54.03761011 C-24.74840621 48.12530736 -24.74038183 42.21334745 -24.71727133 36.30108172 C-24.7119842 34.13190632 -24.71349804 31.96270205 -24.72232199 29.79353815 C-24.73326042 26.83140104 -24.71953385 23.87036108 -24.69960165 20.90829378 C-24.71298598 19.62219616 -24.71298598 19.62219616 -24.7266407 18.31011677 C-24.67562303 14.3986376 -24.35385353 11.19770643 -22.59742117 7.66468817 C-16.44743947 -0.41889294 -9.48806759 -0.07172759 0 0 Z " fill="#060808" transform="translate(292.19166707992554,2671.4974526762962)" />
<path d="M0 0 C32.67 0 65.34 0 99 0 C99.04052457 39.30956545 99.04052457 39.30956545 99.05554199 54.56077576 C99.05647697 55.51015075 99.05741195 56.45952574 99.05837526 57.43766967 C99.12022643 120.3347724 99.17608127 183.23187413 99.2117157 246.1289978 C99.21240598 247.34427906 99.21309627 248.55956033 99.21380747 249.81166829 C99.22877384 276.22634628 99.24262449 302.64102474 99.25532665 329.05570392 C99.26156304 342.01044334 99.26804585 354.96518264 99.2746582 367.91992188 C99.2756389 369.85359611 99.2756389 369.85359611 99.2766394 371.82633447 C99.29792612 413.5707244 99.33546769 455.31508037 99.3814861 497.05944975 C99.42871058 539.97605662 99.45944147 582.89264472 99.46957495 625.80927714 C99.47101561 631.87826707 99.47264379 637.94725694 99.47438622 644.0162468 C99.47472333 645.21064927 99.47506045 646.40505175 99.47540778 647.63564824 C99.48130427 666.82150657 99.50446182 686.00730665 99.53416017 705.19314128 C99.56368374 724.50604878 99.57481811 743.81889884 99.56750689 763.13182808 C99.56371921 774.59001355 99.57370557 786.04798793 99.60398772 797.50613507 C99.62287823 805.18211788 99.62322038 812.85796408 99.60915907 820.5339567 C99.60168371 824.89364493 99.6016248 829.25293695 99.62441591 833.61258097 C99.75218876 859.57683114 98.21985996 885.16269563 89.69775391 909.95996094 C88.92933676 912.20659974 88.20549661 914.46556653 87.48046875 916.7265625 C77.53489873 947.081085 61.07317512 974.12798565 40 998 C39.55543457 998.50772949 39.11086914 999.01545898 38.65283203 999.53857422 C17.87940808 1023.16578239 -7.52755506 1041.6817416 -36 1055 C-36.98355469 1055.46921875 -37.96710937 1055.9384375 -38.98046875 1056.421875 C-55.31791145 1064.0601599 -72.52040095 1069.65413389 -90.1875 1073.25 C-91.28783569 1073.47635132 -91.28783569 1073.47635132 -92.41040039 1073.70727539 C-108.75193244 1076.84410024 -124.81083147 1077.29036234 -141.39404297 1077.25878906 C-143.80904241 1077.26150471 -146.22404102 1077.26506885 -148.63903809 1077.26940918 C-154.47782506 1077.277531 -160.31655403 1077.27641297 -166.15534268 1077.2705839 C-170.90830569 1077.26603831 -175.66125433 1077.26546692 -180.4142189 1077.26763153 C-181.09471943 1077.267938 -181.77521995 1077.26824446 -182.4763417 1077.26856022 C-183.85946273 1077.26919977 -185.24258376 1077.2698482 -186.62570478 1077.2705054 C-199.55016708 1077.27618815 -212.47460086 1077.26968369 -225.39905848 1077.25890467 C-236.4472056 1077.24997508 -247.49531067 1077.25152032 -258.54345703 1077.26074219 C-271.42349218 1077.27148835 -284.30350241 1077.27563479 -297.18354142 1077.26951766 C-298.56174413 1077.26888067 -299.93994685 1077.26825193 -301.31814957 1077.26763153 C-301.99596059 1077.26732298 -302.67377162 1077.26701443 -303.37212237 1077.26669653 C-308.10880425 1077.26498226 -312.84547011 1077.26785711 -317.58214951 1077.27259064 C-323.97958985 1077.27841267 -330.3769516 1077.27427922 -336.77438354 1077.26280212 C-339.10784907 1077.2601811 -341.44132133 1077.26087623 -343.77478409 1077.26532745 C-391.42303319 1077.34776586 -437.4109114 1066.17344847 -477.6875 1039.8125 C-479.47192192 1038.56081854 -481.24315447 1037.29010149 -483 1036 C-483.98742187 1035.28328125 -484.97484375 1034.5665625 -485.9921875 1033.828125 C-499.09490742 1024.15945127 -512.65121925 1013.81876896 -523.12890625 1001.23046875 C-524.55426813 999.53134217 -526.03007676 997.87439835 -527.52734375 996.23828125 C-546.81111561 974.9852866 -562.80654907 948.22199716 -572 921 C-572.27505371 920.20045898 -572.55010742 919.40091797 -572.83349609 918.57714844 C-580.33308458 896.44172723 -585.18192921 873.28904689 -585.12025452 849.870224 C-585.12110894 848.67422044 -585.12196337 847.47821688 -585.12284368 846.24597079 C-585.12419994 842.94842452 -585.12109782 839.65093836 -585.11606562 836.3533994 C-585.11172939 832.78910715 -585.11320979 829.22481661 -585.1139679 825.66052246 C-585.11449112 819.49248253 -585.11136534 813.32445321 -585.10573006 807.15641594 C-585.09758779 798.23857417 -585.09499704 789.3207375 -585.09374207 780.40289242 C-585.09155583 765.93273592 -585.08490736 751.46258507 -585.07543945 736.99243164 C-585.06625426 722.93969755 -585.05917884 708.886965 -585.05493164 694.83422852 C-585.05466892 693.96737731 -585.05440619 693.10052611 -585.05413551 692.20740669 C-585.05283043 687.85847768 -585.05156673 683.50954865 -585.05032361 679.16061962 C-585.03996433 643.10707472 -585.0215332 607.05354029 -585 571 C-552.33 571 -519.66 571 -486 571 C-485.99589111 579.44198975 -485.99178223 587.88397949 -485.98754883 596.58178711 C-485.97084408 623.68155481 -485.92959232 650.78123637 -485.87314438 677.88094926 C-485.86437902 682.0997503 -485.85582896 686.31855176 -485.84741211 690.53735352 C-485.84573305 691.37713974 -485.84405398 692.21692595 -485.84232404 693.08216024 C-485.81575078 706.62881666 -485.80656593 720.17543075 -485.80395857 733.72211056 C-485.8008847 747.65195276 -485.7787735 761.58167383 -485.73947543 775.51146132 C-485.7158677 784.08707854 -485.70660574 792.66245301 -485.71648689 801.23809809 C-485.72185758 807.14166289 -485.7085167 813.04501284 -485.6813371 818.94851648 C-485.66624747 822.34015334 -485.66136693 825.73091474 -485.67340279 829.12262154 C-485.77781416 861.81583004 -479.2990115 891.88679336 -460.81640625 919.23046875 C-444.12153757 942.23427176 -421.47251163 960.51086508 -394.4296875 969.89160156 C-391.73491359 970.76268919 -389.03161501 971.58328734 -386.3125 972.375 C-385.08527222 972.73319824 -385.08527222 972.73319824 -383.83325195 973.09863281 C-369.00365517 977.15013084 -354.41754815 977.28938373 -339.16821289 977.25878906 C-336.8850951 977.26150361 -334.60197819 977.26506713 -332.31886292 977.26940918 C-326.15357009 977.27848078 -319.98834465 977.27501044 -313.82305074 977.26865101 C-307.34919007 977.26356323 -300.87533491 977.26829021 -294.401474 977.27142334 C-282.83681513 977.27528735 -271.27218681 977.26909811 -259.70753276 977.25890467 C-249.25105168 977.24997284 -238.79461504 977.25152146 -228.33813477 977.26074219 C-216.15729894 977.27147866 -203.9764947 977.27541135 -191.79565424 977.26951766 C-185.3617197 977.26641167 -178.92781567 977.26595068 -172.49388313 977.27259064 C-166.44203992 977.27840071 -160.39027996 977.27430061 -154.33844566 977.26280212 C-152.12746951 977.26017491 -149.91648626 977.26088713 -147.705513 977.26532745 C-116.41072436 977.32234537 -85.88647508 971.78982469 -59.61328125 953.73828125 C-53.03451785 948.91160849 -46.93061238 943.59676996 -41 938 C-40.26265625 937.32710937 -39.5253125 936.65421875 -38.765625 935.9609375 C-19.09934681 917.34073793 -8.26293469 892.41908352 -2.76171875 866.31640625 C-0.98008545 856.72993402 -0.85330907 847.19008132 -0.8613348 837.46352196 C-0.8588837 835.99884158 -0.85599875 834.53416187 -0.85272202 833.0694831 C-0.84498075 829.0493629 -0.84338151 825.02926033 -0.8427946 821.00913359 C-0.84106122 816.63387039 -0.83357343 812.2586164 -0.82681805 807.8833586 C-0.81577236 800.21693813 -0.80839369 792.55052095 -0.80341911 784.88409424 C-0.79600548 773.48441228 -0.78292055 762.08474176 -0.76867336 750.68506654 C-0.7448675 731.50863859 -0.72566135 712.33220861 -0.70907402 693.15577316 C-0.69263477 674.16789852 -0.67415275 655.18002768 -0.65294075 636.19215775 C-0.65096434 634.42143766 -0.65096434 634.42143766 -0.648948 632.61494544 C-0.64224594 626.61991673 -0.63550737 620.62488806 -0.62875474 614.6298594 C-0.58098797 572.16388782 -0.53780401 529.69791269 -0.49731445 487.23193359 C-0.45796821 445.97607159 -0.41654656 404.72021253 -0.37231445 363.46435547 C-0.37095192 362.19273509 -0.36958939 360.92111472 -0.36818558 359.61096039 C-0.35450024 346.84085981 -0.34077269 334.07075928 -0.32701423 321.30065878 C-0.29898747 295.28634643 -0.27124238 269.27203378 -0.2436676 243.25772095 C-0.2417653 241.46356545 -0.2417653 241.46356545 -0.23982458 239.63316439 C-0.17422733 177.74142828 -0.11281204 115.8496881 -0.05235291 53.95794678 C-0.05150236 53.08727194 -0.05065181 52.21659711 -0.04977548 51.31953819 C-0.03307191 34.21302557 -0.01655365 17.10651277 0 0 Z " fill="#060808" transform="translate(1483,814)" />
<path d="M0 0 C4.00479732 0.01134503 8.00932727 0.00462603 12.01411533 -0.00686836 C41.07387182 -0.07771949 69.96089097 1.06875427 98.82397461 4.63574219 C100.66829044 4.85712824 102.51261017 5.07848184 104.35693359 5.29980469 C116.2976369 6.75297005 128.1694913 8.42543656 139.97680664 10.74267578 C142.87917626 11.3080171 145.78637349 11.84221835 148.69506836 12.37402344 C170.10555545 16.33116365 191.79427006 20.49620237 212.59521484 27.00756836 C215.87444745 28.03256733 219.1661905 29.00444158 222.46688843 29.95768738 C232.05792025 32.73239367 241.54542449 35.77574955 251.01147461 38.94824219 C251.78783264 39.20807892 252.56419067 39.46791565 253.36407471 39.73562622 C288.59060925 51.54710849 322.40735972 65.685332 355.63647461 82.26074219 C356.77713379 82.82905762 357.91779297 83.39737305 359.09301758 83.98291016 C376.41593043 92.6654226 393.11691615 102.15016305 409.63647461 112.26074219 C410.51770996 112.79940918 411.39894531 113.33807617 412.30688477 113.89306641 C446.44633558 134.86723463 478.46456562 158.86049481 508.94506836 184.82373047 C510.62940068 186.2547322 512.31993741 187.67811253 514.01147461 189.10058594 C528.53756754 201.36689975 542.13985356 214.59370016 555.55810547 228.05200195 C557.72565103 230.22498554 559.89859961 232.39246582 562.07202148 234.55957031 C563.48054588 235.96875447 564.88876061 237.37824824 566.29663086 238.78808594 C566.93214371 239.42157455 567.56765656 240.05506317 568.22242737 240.70774841 C572.00832275 244.51325513 575.6091646 248.43364272 579.11378479 252.49993896 C581.19445801 254.90598126 583.3531497 257.23687364 585.51147461 259.57324219 C589.60527669 264.06222275 593.49117128 268.67317694 597.30444336 273.40136719 C599.34110655 275.89858235 601.41933014 278.35264777 603.52099609 280.79516602 C614.81436993 293.95024032 625.00942269 307.96616416 635.07202148 322.07275391 C636.55946847 324.15304415 638.05768935 326.22512943 639.55834961 328.29589844 C658.30024235 354.30939187 674.54851984 382.00194901 689.63647461 410.26074219 C690.12470703 411.16872559 690.61293945 412.07670898 691.1159668 413.01220703 C730.10017422 485.64824018 755.31719491 564.67514094 776.82397461 709.38574219 C776.93153076 710.52499146 776.93153076 710.52499146 777.04125977 711.68725586 C777.26443977 714.21038458 777.45426221 716.73430967 777.63647461 719.26074219 C777.76783813 720.97692749 777.76783813 720.97692749 777.90185547 722.7277832 C778.89477764 736.98033523 778.82386049 751.26179849 778.82177734 765.54125977 C778.82169674 768.45603733 778.828548 771.37065551 778.84228516 774.28540039 C778.97026591 801.93362798 777.61300736 829.32959323 774.51147461 856.82324219 C774.35624329 858.21352631 774.35624329 858.21352631 774.19787598 859.63189697 C769.24110112 903.43949317 760.78754422 947.15110468 747.63647461 989.26074219 C747.23789515 990.57671193 746.84063991 991.89308391 746.44506836 993.20996094 C745.21581499 997.24037008 743.93407056 1001.25199895 742.63647461 1005.26074219 C742.30309082 1006.29875977 741.96970703 1007.33677734 741.6262207 1008.40625 C735.63877078 1026.97945884 729.01374225 1045.18537804 721.63647461 1063.26074219 C721.19239258 1064.35241699 720.74831055 1065.4440918 720.29077148 1066.56884766 C715.37715964 1078.61226225 710.35995782 1090.57673764 704.63647461 1102.26074219 C704.15726563 1103.24494141 703.67805664 1104.22914062 703.18432617 1105.24316406 C695.71412232 1120.54078415 687.93262068 1135.59309822 679.35668945 1150.30761719 C678.17689704 1152.3329889 677.00304177 1154.36182728 675.83422852 1156.39355469 C668.05552792 1169.91110819 659.92156328 1183.10689895 651.26147461 1196.07324219 C650.85299286 1196.68523468 650.44451111 1197.29722717 650.02365112 1197.92776489 C642.22213274 1209.58684175 634.1452816 1221.05851281 625.69897461 1232.26074219 C625.20083252 1232.92243408 624.70269043 1233.58412598 624.18945312 1234.26586914 C616.47916891 1244.47355936 608.55982476 1254.46002092 600.24584961 1264.18261719 C597.86175369 1266.97740408 595.55841946 1269.83125263 593.26147461 1272.69824219 C589.18556359 1277.71249243 584.84794667 1282.44116506 580.41625977 1287.1394043 C577.70026303 1290.02066009 575.04515705 1292.93199389 572.46679688 1295.9375 C568.53631526 1300.43890271 564.37040647 1304.67106849 560.14038086 1308.88964844 C559.34800522 1309.6829808 558.55562958 1310.47631317 557.73924255 1311.29368591 C556.07397178 1312.959633 554.40745432 1314.62433475 552.73974609 1316.2878418 C550.20612839 1318.81610353 547.67789293 1321.34965879 545.15014648 1323.88378906 C543.52221178 1325.51106289 541.89396686 1327.13802644 540.26538086 1328.76464844 C539.51930069 1329.51275284 538.77322052 1330.26085724 538.00453186 1331.03163147 C533.91333353 1335.10485787 529.73500905 1339.01508708 525.35662842 1342.77870178 C522.96120274 1344.84253911 520.64633422 1346.99035866 518.32397461 1349.13574219 C513.43759463 1353.58762874 508.40111918 1357.79377349 503.25610352 1361.94140625 C501.44662653 1363.41539082 499.65613856 1364.91064473 497.86694336 1366.40917969 C487.84598201 1374.78331877 477.56653953 1382.73940472 467.05053711 1390.48193359 C464.82327947 1392.12309451 462.60449176 1393.77509993 460.38647461 1395.42871094 C433.29962938 1415.46281487 404.31517941 1433.35678032 374.63647461 1449.26074219 C373.79004395 1449.71481445 372.94361328 1450.16888672 372.0715332 1450.63671875 C320.09174776 1478.39555705 265.61438841 1500.35674062 208.65844727 1515.44677734 C206.09177358 1516.13810794 203.5401613 1516.86035941 200.99194336 1517.61621094 C140.56751311 1535.49531759 75.41136373 1541.90212201 12.63769531 1541.65185547 C8.3059348 1541.63472462 3.97472639 1541.64497757 -0.35701561 1541.6621933 C-23.51011426 1541.73976341 -46.32930295 1540.5824893 -69.36352539 1538.26074219 C-71.12922882 1538.08764778 -71.12922882 1538.08764778 -72.93060303 1537.91105652 C-104.57948864 1534.79734624 -136.4470718 1529.73398069 -167.36352539 1522.26074219 C-168.02380737 1522.10132141 -168.68408936 1521.94190063 -169.36437988 1521.77764893 C-190.27964815 1516.71146294 -210.91354895 1510.98275046 -231.36352539 1504.26074219 C-231.99198364 1504.05533813 -232.62044189 1503.84993408 -233.26794434 1503.63830566 C-282.64501242 1487.49407019 -330.44109516 1466.37136923 -375.36352539 1440.26074219 C-376.28375488 1439.72835938 -377.20398438 1439.19597656 -378.15209961 1438.64746094 C-423.08179219 1412.60677185 -465.66061894 1382.24679054 -504.12133789 1347.28808594 C-506.07560964 1345.5210702 -508.05412277 1343.79160689 -510.05102539 1342.07324219 C-521.23780296 1332.27380121 -531.84018342 1321.8858919 -542.36352539 1311.38574219 C-542.90572723 1310.84612854 -543.44792908 1310.30651489 -544.00656128 1309.75054932 C-549.46242122 1304.31523622 -554.85341829 1298.86715635 -559.8605957 1293.00878906 C-562.23709737 1290.2446968 -564.74516618 1287.6064828 -567.23852539 1284.94824219 C-571.72219808 1280.12838141 -575.97976769 1275.18570241 -580.10180664 1270.04980469 C-582.10975203 1267.57368551 -584.16447004 1265.14635263 -586.24389648 1262.73022461 C-592.72674098 1255.18308425 -598.77382928 1247.33545151 -604.75805664 1239.38964844 C-606.2867708 1237.36252139 -607.82396514 1235.34213782 -609.36352539 1233.32324219 C-621.41516192 1217.46372051 -632.73828022 1201.1076138 -643.36352539 1184.26074219 C-643.86706543 1183.46619629 -644.37060547 1182.67165039 -644.8894043 1181.85302734 C-661.78631063 1155.13294261 -677.16168248 1127.37857041 -690.28491211 1098.60327148 C-691.44371907 1096.08657778 -692.62357437 1093.58007293 -693.80323792 1091.07310486 C-711.45350569 1053.48704903 -725.42021637 1014.29702811 -736.36352539 974.26074219 C-736.54230225 973.61184021 -736.7210791 972.96293823 -736.90527344 972.29437256 C-748.69803607 929.48878347 -756.46674842 885.92173275 -760.07543945 841.67089844 C-760.40424198 837.77876815 -760.78967075 833.89492468 -761.20092773 830.01074219 C-763.14161428 810.61046651 -763.57361132 791.1856534 -763.55102539 771.69824219 C-763.55008881 770.63737396 -763.54915222 769.57650574 -763.54818726 768.48348999 C-763.38316607 681.35636937 -748.19026682 595.4900279 -659.36352539 383.26074219 C-658.83791016 382.36516602 -658.31229492 381.46958984 -657.77075195 380.546875 C-643.91655184 357.02734276 -628.73439444 334.10794974 -612.36352539 312.26074219 C-611.83742676 311.55739746 -611.31132813 310.85405273 -610.76928711 310.12939453 C-597.40645706 292.32697957 -583.36581215 274.9779988 -568.39086914 258.50292969 C-566.6238534 256.54865794 -564.8943901 254.57014481 -563.17602539 252.57324219 C-553.53500484 241.56423899 -543.32053151 231.11659246 -532.98852539 220.76074219 C-532.4728299 220.2424585 -531.9571344 219.7241748 -531.42581177 219.19018555 C-526.13838998 213.88184075 -520.82559681 208.6559811 -515.12915039 203.78125 C-512.36069625 201.39713324 -509.71530226 198.88478932 -507.05102539 196.38574219 C-502.25837624 191.92694738 -497.34162711 187.69953428 -492.23461914 183.60058594 C-489.53703214 181.40214429 -486.90028236 179.15006138 -484.27197266 176.87011719 C-477.72138278 171.18845566 -471.03054017 165.77381532 -464.09692383 160.56445312 C-462.2565828 159.18030931 -460.42320682 157.78724643 -458.59008789 156.39355469 C-392.2961685 106.14697293 -318.21274863 66.29656839 -239.30114746 39.90924072 C-237.41812239 39.27901514 -235.53679217 38.64373261 -233.65551758 38.00830078 C-197.05808973 25.69771249 -159.45593754 16.51870193 -121.36352539 10.26074219 C-120.30810547 10.08446289 -119.25268555 9.90818359 -118.1652832 9.7265625 C-105.70573542 7.65966584 -93.20921796 5.91341326 -80.67218018 4.39309692 C-78.67416025 4.15068185 -76.67677801 3.90302727 -74.67944336 3.6550293 C-49.80026767 0.73645752 -25.01969165 -0.07137777 0 0 Z M-131.71020508 20.75585938 C-134.43842692 21.27499471 -137.17026384 21.7715093 -139.90258789 22.26855469 C-201.37354129 33.73423731 -261.17915334 54.20231634 -317.61889648 80.96630859 C-320.06325637 82.11912803 -322.51592868 83.24921283 -324.97680664 84.36621094 C-335.73078045 89.27002299 -346.06606716 94.86431439 -356.39086914 100.61035156 C-359.43808318 102.30213597 -362.49396736 103.97744618 -365.55102539 105.65136719 C-379.51200769 113.33396745 -393.04456358 121.51488056 -406.36352539 130.26074219 C-407.56380371 131.04578125 -407.56380371 131.04578125 -408.78833008 131.84667969 C-425.09865122 142.53485687 -440.96782008 153.74542341 -456.36743164 165.70996094 C-458.25859566 167.17922144 -460.15450151 168.64216168 -462.05102539 170.10449219 C-468.63474932 175.20505952 -475.03957765 180.4736354 -481.33178711 185.92993164 C-484.72267847 188.86905253 -488.16186617 191.71852504 -491.67602539 194.51074219 C-498.88495951 200.3646931 -505.51556422 206.84809814 -512.23657227 213.24707031 C-514.81731753 215.69036542 -517.42643922 218.10158747 -520.03833008 220.51147461 C-526.26656224 226.26734084 -532.35599856 232.14978285 -538.36352539 238.13574219 C-539.40476562 239.17009399 -539.40476562 239.17009399 -540.46704102 240.2253418 C-544.3781142 244.14822378 -548.10188052 248.17795557 -551.7199707 252.37207031 C-554.15633922 255.17179504 -556.69982206 257.86668717 -559.23852539 260.57324219 C-563.70179246 265.37069847 -567.93326968 270.29236591 -572.03540039 275.40527344 C-574.17754539 278.03263585 -576.37463284 280.59449228 -578.60180664 283.14916992 C-585.34259292 290.89258284 -591.61058104 298.94032245 -597.77416992 307.14794922 C-599.29486354 309.16946727 -600.82562685 311.18289929 -602.35961914 313.19433594 C-625.43601294 343.553583 -646.12632411 375.88017438 -663.95288086 409.59521484 C-665.38206523 412.29577473 -666.82741163 414.98726948 -668.27368164 417.67871094 C-682.03731597 443.47244416 -693.70947197 470.05913544 -704.36352539 497.26074219 C-704.78472656 498.3298584 -705.20592773 499.39897461 -705.63989258 500.50048828 C-720.43287301 538.23905212 -731.58316932 577.49447783 -739.36352539 617.26074219 C-739.61585938 618.53755859 -739.86819336 619.814375 -740.12817383 621.12988281 C-741.97134919 630.48976887 -743.70325329 639.86677616 -745.36352539 649.26074219 C-745.55688477 650.33952637 -745.75024414 651.41831055 -745.94946289 652.52978516 C-748.74561178 668.45820941 -750.20341034 684.46990731 -751.55102539 700.57324219 C-751.63588196 701.58241699 -751.72073853 702.5915918 -751.8081665 703.63134766 C-755.95451017 753.5540159 -755.52494203 803.43342595 -750.36352539 853.26074219 C-750.22560577 854.60304901 -750.22560577 854.60304901 -750.0848999 855.97247314 C-747.37845814 882.02689787 -742.85924954 907.65745506 -737.36352539 933.26074219 C-737.20003601 934.02277954 -737.03654663 934.78481689 -736.86810303 935.56994629 C-720.95938927 1009.30398478 -693.6263183 1081.20291623 -655.92163086 1146.5546875 C-654.46557612 1149.0835046 -653.02360906 1151.61974183 -651.58618164 1154.15917969 C-641.39371738 1172.08539973 -630.22936388 1189.3997313 -618.36352539 1206.26074219 C-617.97310059 1206.82067871 -617.58267578 1207.38061523 -617.18041992 1207.95751953 C-599.83365679 1232.8317088 -580.77092105 1256.57744265 -560.38305664 1279.02246094 C-558.47200112 1281.14051667 -556.60146956 1283.28788786 -554.73852539 1285.44824219 C-552.02048983 1288.5733568 -549.15740059 1291.49214021 -546.20117188 1294.390625 C-544.44937946 1296.1733711 -542.82403054 1298.01123645 -541.20336914 1299.91308594 C-537.1404113 1304.5842517 -532.81326753 1308.95821393 -528.42602539 1313.32324219 C-527.66612305 1314.08701172 -526.9062207 1314.85078125 -526.12329102 1315.63769531 C-521.97952169 1319.77438732 -517.74988384 1323.73678904 -513.31298828 1327.55639648 C-509.96552412 1330.48296471 -506.77163402 1333.57120004 -503.55102539 1336.63574219 C-498.23674762 1341.65464584 -492.85026592 1346.47002967 -487.12915039 1351.02636719 C-484.46270039 1353.18061775 -481.86791973 1355.39756634 -479.27954102 1357.64404297 C-472.78299094 1363.28158902 -466.13866782 1368.66582313 -459.26000977 1373.83251953 C-457.13682283 1375.43146952 -455.02378542 1377.04339235 -452.91040039 1378.65527344 C-434.33675302 1392.76711588 -415.26268157 1406.08370881 -395.36352539 1418.26074219 C-394.19587646 1418.97858887 -394.19587646 1418.97858887 -393.00463867 1419.7109375 C-312.24670691 1469.23277825 -224.3907679 1503.18237009 -92.36352539 1527.26074219 C-91.34145996 1527.40705078 -90.31939453 1527.55335937 -89.26635742 1527.70410156 C-81.64973661 1528.7628976 -74.02152929 1529.5668962 -66.36352539 1530.26074219 C-65.26409607 1530.36095673 -65.26409607 1530.36095673 -64.14245605 1530.4631958 C-21.30912973 1534.31910505 22.62434396 1535.70610929 65.48181152 1531.47296143 C67.91013417 1531.23378864 70.33920435 1531.00304811 72.76831055 1530.77197266 C138.19420126 1524.47884978 201.59792891 1511.10072756 263.63647461 1489.26074219 C264.27004883 1489.03795593 264.90362305 1488.81516968 265.55639648 1488.58563232 C324.2540669 1467.89029654 381.3529512 1439.64385944 432.63647461 1404.26074219 C433.6922168 1403.53298584 433.6922168 1403.53298584 434.76928711 1402.79052734 C452.29236814 1390.68557718 469.50496351 1378.27248009 485.9128418 1364.68457031 C488.34877526 1362.67233746 490.80689936 1360.68766469 493.26147461 1358.69824219 C503.70519296 1350.13064091 513.84360476 1341.27555909 523.70703125 1332.04663086 C525.20266862 1330.66227209 526.70925389 1329.28973654 528.22021484 1327.92211914 C535.57592803 1321.25031873 542.68384687 1314.36922482 549.69287109 1307.3347168 C551.4613468 1305.56083215 553.23517505 1303.79242442 555.00952148 1302.02441406 C560.2404767 1296.79651923 565.40661888 1291.56842303 570.20654297 1285.93579102 C572.39886253 1283.36766663 574.71005814 1280.91898209 577.01147461 1278.44824219 C581.28487432 1273.82293266 585.3253119 1269.05992317 589.27319336 1264.15136719 C591.42958664 1261.51379524 593.63821413 1258.93835321 595.87646484 1256.37084961 C602.59296271 1248.65312118 608.85825661 1240.6482356 614.98754883 1232.45849609 C616.57994046 1230.33609315 618.18722386 1228.2257246 619.79663086 1226.11621094 C643.10812809 1195.29577256 663.13321727 1162.13715551 681.63647461 1128.26074219 C682.12067871 1127.37499512 682.60488281 1126.48924805 683.10375977 1125.57666016 C711.32609931 1073.62346918 731.9634461 1017.44980108 746.63647461 960.26074219 C746.93875977 959.08511719 747.24104492 957.90949219 747.55249023 956.69824219 C752.67853119 936.52403042 756.66333367 916.13193011 760.26147461 895.63574219 C760.45555908 894.54229492 760.64964355 893.44884766 760.84960938 892.32226562 C767.69854428 852.47708434 770.02407557 812.41164712 770.01208878 772.04312897 C770.01148398 769.54939689 770.01399766 767.05568108 770.01669312 764.56195068 C770.02727876 736.9136069 768.6607916 709.5464765 765.38647461 682.07324219 C765.28076141 681.17239899 765.17504822 680.27155579 765.06613159 679.34341431 C763.11413991 662.8291282 760.53568019 646.4844032 757.38500977 630.15869141 C756.66034516 626.38504656 755.96476604 622.6069768 755.27319336 618.82714844 C747.47492994 577.10936034 735.35667102 535.67671675 719.63647461 496.26074219 C719.28552734 495.37177246 718.93458008 494.48280273 718.57299805 493.56689453 C706.8684501 464.00623029 693.7587456 434.95177385 678.26342773 407.18212891 C676.55911179 404.12182811 674.87067112 401.05309816 673.18334961 397.98339844 C666.08588034 385.12181084 658.69976798 372.54001311 650.63647461 360.26074219 C649.68804688 358.81538086 649.68804688 358.81538086 648.72045898 357.34082031 C640.91928004 345.48572096 633.04735112 333.69357964 624.63647461 322.26074219 C623.9390918 321.31199219 623.24170898 320.36324219 622.52319336 319.38574219 C612.74618234 306.23056831 602.71980103 293.25993173 592.00610352 280.85253906 C590.56547986 279.17823135 589.13716058 277.49399755 587.71069336 275.80761719 C581.45705853 268.43111744 575.03129238 261.25394662 568.42431641 254.19213867 C567.03364886 252.68980753 565.65459776 251.17672003 564.28027344 249.65942383 C557.75372541 242.4564202 551.02351576 235.49140159 544.13769531 228.6315918 C542.43623683 226.93554492 540.74026198 225.23414398 539.04467773 223.53222656 C533.95063502 218.43507786 528.84579172 213.41992387 523.36035156 208.73950195 C520.60221189 206.37354076 517.97389153 203.871294 515.32397461 201.38574219 C510.50892018 196.9065406 505.57115617 192.65304448 500.44116211 188.53417969 C497.8933527 186.46896371 495.39354012 184.36098533 492.90283203 182.22802734 C486.5507669 176.7914986 480.04905696 171.60604436 473.37280273 166.57177734 C471.56547104 165.2071301 469.76495647 163.83379346 467.96459961 162.45996094 C443.91982063 144.18470526 418.74046998 127.44607155 392.63647461 112.26074219 C391.76651855 111.75365723 390.8965625 111.24657227 390.00024414 110.72412109 C315.06054162 67.23825073 232.05497532 35.57740194 129.57397461 18.07324219 C128.79800934 17.94622925 128.02204407 17.81921631 127.2225647 17.68835449 C117.91575048 16.17390975 108.60632346 14.82345796 99.24438477 13.69702148 C96.71461031 13.39111358 94.18919106 13.07302139 91.66357422 12.73632812 C66.88237374 9.45306767 41.67886143 8.78753915 16.70581055 8.3036499 C14.67987263 8.26164205 12.65433507 8.21087511 10.62866211 8.15771484 C-36.83781102 7.01401435 -85.08811963 11.85983344 -131.71020508 20.75585938 Z " fill="#0D1010" transform="translate(1232.363525390625,581.7392578125)" />
<path d="M0 0 C2.36272864 0.01610619 4.72374778 0.00003061 7.08642578 -0.01904297 C17.3335423 -0.03328312 26.8802971 1.11318623 36.86376953 3.39111328 C37.71116699 3.57915527 38.55856445 3.76719727 39.43164062 3.9609375 C54.81527502 7.60003864 69.18575338 14.6626936 80.86376953 25.39111328 C82.10513672 26.49519531 82.10513672 26.49519531 83.37158203 27.62158203 C90.26773153 34.08540412 95.17593095 41.26413121 99.86376953 49.39111328 C100.43095703 50.36951172 100.99814453 51.34791016 101.58251953 52.35595703 C104.59988699 57.96733682 106.76891497 63.68809875 108.61376953 69.76611328 C108.81260742 70.41298096 109.01144531 71.05984863 109.21630859 71.72631836 C112.71539661 84.02264182 113.15345369 96.44597701 113.09082031 109.12695312 C113.09025466 110.75461317 113.09057576 112.38227372 113.09170532 114.00993347 C113.09227383 118.38297783 113.08060189 122.75591011 113.06655741 127.12892866 C113.05396532 131.71596155 113.05287292 136.30299766 113.05050659 140.89004517 C113.04431655 149.55589062 113.0279396 158.22168497 113.00780761 166.88750803 C112.9853711 176.76188189 112.97443578 186.63625831 112.96441674 196.51065135 C112.94357088 216.80417342 112.90692597 237.09762554 112.86376953 257.39111328 C102.96376953 257.39111328 93.06376953 257.39111328 82.86376953 257.39111328 C82.86376953 229.67111328 82.86376953 201.95111328 82.86376953 173.39111328 C30.39376953 173.39111328 -22.07623047 173.39111328 -76.13623047 173.39111328 C-76.13623047 201.11111328 -76.13623047 228.83111328 -76.13623047 257.39111328 C-86.03623047 257.39111328 -95.93623047 257.39111328 -106.13623047 257.39111328 C-106.20413997 236.43215208 -106.25932386 215.47328097 -106.29166698 194.5142374 C-106.30708843 184.78101708 -106.32808683 175.04787034 -106.36254883 165.31469727 C-106.39259665 156.82412743 -106.41183973 148.33361092 -106.41849595 139.84298939 C-106.42238234 135.35374558 -106.43141551 130.86465425 -106.45342064 126.37545967 C-106.47402984 122.13604364 -106.48001585 117.89684052 -106.47555351 113.65737915 C-106.47636794 112.11484043 -106.48218633 110.57229337 -106.49384689 109.02979851 C-106.67344355 84.01048676 -100.64481572 60.45206839 -86.76123047 39.51611328 C-75.02657402 23.25264431 -58.50206958 12.18358367 -39.69873047 5.57861328 C-26.45399771 1.57690868 -13.79024389 -0.11132675 0 0 Z " fill="#070909" transform="translate(905.13623046875,2288.60888671875)" />
<path d="M0 0 C0.81102173 -0.00626404 1.62204346 -0.01252808 2.4576416 -0.01898193 C29.25947467 -0.14974572 56.1061496 7.57653231 78.58984375 22.34375 C85.05363295 26.91282399 90.9337544 32.0114384 96.6875 37.4375 C97.36425781 38.04980469 98.04101562 38.66210938 98.73828125 39.29296875 C116.4141082 55.90612074 126.90899936 79.55603824 131.9180603 102.9206543 C133.64889156 111.46648068 134.12493353 119.75207335 134.02368164 128.45678711 C133.99989104 130.6349763 134.00318175 132.81194593 134.00976562 134.99023438 C133.98740316 146.68844655 132.69630081 157.97438135 129.5 169.25 C129.28714355 170.0042627 129.07428711 170.75852539 128.85498047 171.53564453 C121.70830954 195.83026218 107.46983748 217.59984282 88.015625 233.83251953 C68.32724446 249.46707172 43.60346643 259.36889697 18.6875 262.4375 C15.91529858 262.56123613 13.16712354 262.64706248 10.39453125 262.67578125 C9.61476425 262.6855751 8.83499725 262.69536896 8.03160095 262.70545959 C-23.94754109 263.02468884 -23.94754109 263.02468884 -39.3125 258.4375 C-40.05193848 258.23382812 -40.79137695 258.03015625 -41.55322266 257.8203125 C-62.95516762 251.87711116 -81.21809747 240.61530339 -97.3125 225.4375 C-97.98925781 224.82519531 -98.66601562 224.21289062 -99.36328125 223.58203125 C-117.50866862 206.52754893 -126.97789727 182.80632934 -132.76953125 159.11328125 C-133.95458262 153.27327989 -134.48521988 147.53300008 -134.55078125 141.58203125 C-134.56547203 140.47903687 -134.56547203 140.47903687 -134.58045959 139.35375977 C-134.74613432 123.6964157 -134.87449064 108.56722835 -130.3125 93.4375 C-130.10351074 92.71691406 -129.89452148 91.99632813 -129.67919922 91.25390625 C-123.64489841 70.96780735 -112.78120102 53.77997693 -98.3125 38.4375 C-97.70019531 37.76074219 -97.08789062 37.08398438 -96.45703125 36.38671875 C-81.42539201 20.39356741 -60.20371219 10.19180207 -39.3125 4.4375 C-38.61302246 4.22867188 -37.91354492 4.01984375 -37.19287109 3.8046875 C-24.95194487 0.23876661 -12.65100707 0.04602472 0 0 Z M-24.3125 31.4375 C-25.58351563 31.68242187 -26.85453125 31.92734375 -28.1640625 32.1796875 C-47.8942523 36.33962375 -65.48887746 47.31295883 -79.23828125 61.9296875 C-93.15592833 77.41496971 -100.85964077 96.8807002 -103.890625 117.33984375 C-106.40678781 139.47513166 -102.68989698 162.62026126 -92.3125 182.4375 C-87.63043578 190.66223039 -81.82714214 197.61206759 -75.3125 204.4375 C-74.52166016 205.34048828 -74.52166016 205.34048828 -73.71484375 206.26171875 C-62.61792865 218.43710642 -46.10987258 226.45365804 -30.31567383 230.17236328 C-4.58698271 235.86392674 21.27564257 234.64631577 45.875 224.6875 C56.94550148 219.70764646 65.95146543 212.77574666 74.6875 204.4375 C75.28949219 203.91027344 75.89148437 203.38304688 76.51171875 202.83984375 C89.08924977 191.37640639 96.61910368 174.62330744 100.53857422 158.34423828 C104.08966321 142.45534893 105.18235106 126.4621864 101.6875 110.4375 C101.2853125 108.55224609 101.2853125 108.55224609 100.875 106.62890625 C96.60710964 87.65105109 88.11556503 72.50616996 74.6875 58.4375 C74.16027344 57.83550781 73.63304687 57.23351563 73.08984375 56.61328125 C60.79254555 43.12084921 42.62736988 35.68135302 25.20629883 31.58154297 C9.20971592 28.06114375 -8.28079572 28.24583347 -24.3125 31.4375 Z " fill="#080A0A" transform="translate(1515.3125,2288.5625)" />
<path d="M0 0 C2.07306457 0.02378886 4.14484884 0.0205037 6.21801758 0.01391602 C24.74776839 0.05111799 43.97170094 4.4643243 59.4387207 15.09790039 C63.55951666 18.22238548 67.35706511 21.53919798 70.8762207 25.33618164 C71.67286133 26.15989258 71.67286133 26.15989258 72.4855957 27.00024414 C81.99982417 37.23014466 87.30318129 49.26612324 90.1262207 62.83618164 C90.8762207 68.33618164 90.8762207 68.33618164 90.8762207 80.33618164 C80.6462207 80.33618164 70.4162207 80.33618164 59.8762207 80.33618164 C59.5462207 75.71618164 59.2162207 71.09618164 58.8762207 66.33618164 C55.89595926 56.07083667 51.41284374 47.74933972 43.0715332 40.89868164 C31.03971954 32.3351132 17.69166035 30.2885177 3.3137207 30.08618164 C-10.79846049 30.07740723 -24.77869621 32.38931059 -36.8737793 40.08618164 C-44.33777079 45.59531822 -48.77515003 52.19031882 -51.9987793 60.83618164 C-53.2898401 65.67765964 -53.43482075 70.47850624 -53.4987793 75.46118164 C-53.51279785 76.21334961 -53.52681641 76.96551758 -53.54125977 77.74047852 C-53.48410039 84.42959068 -51.55553583 89.47266858 -48.5612793 95.46118164 C-45.049638 99.60311753 -40.89182463 101.83117872 -36.1237793 104.33618164 C-35.10670898 104.89305664 -35.10670898 104.89305664 -34.0690918 105.46118164 C-21.74757127 111.59797007 -7.26529224 112.85052168 6.1887207 114.83618164 C59.42266683 122.70224372 59.42266683 122.70224372 78.2512207 138.58618164 C86.41018064 146.38752483 92.01617086 156.30076631 94.55981445 167.28930664 C97.58765558 184.24521695 96.32571151 200.71546254 89.2434082 216.53540039 C82.28813227 230.78377994 72.4895617 241.20002112 58.8762207 249.33618164 C36.53178704 261.61303568 11.26532389 264.18605137 -13.81860352 262.11352539 C-33.44052373 259.89909052 -52.62477814 252.78208621 -67.6315918 239.73461914 C-80.22520476 227.61474711 -87.17446543 212.85387018 -90.8737793 195.89868164 C-91.28363169 190.05828501 -91.1237793 184.1909414 -91.1237793 178.33618164 C-80.8937793 178.33618164 -70.6637793 178.33618164 -60.1237793 178.33618164 C-59.6287793 185.76118164 -59.6287793 185.76118164 -59.1237793 193.33618164 C-57.13817778 202.18113387 -53.53411242 209.87242907 -47.1237793 216.33618164 C-38.42981067 224.23320315 -27.38356521 229.05234005 -15.8581543 231.01538086 C4.37759472 233.38946784 24.28966163 232.00989901 42.67700195 222.95727539 C50.42916987 218.64005896 55.52206713 213.21115709 59.6887207 205.39868164 C64.02939451 195.97485035 64.76796097 186.67376324 63.8762207 176.33618164 C62.64941396 171.22338165 60.83647986 167.468795 57.4387207 163.46118164 C56.5930957 162.75993164 55.7474707 162.05868164 54.8762207 161.33618164 C54.1027832 160.68262695 53.3293457 160.02907227 52.5324707 159.35571289 C36.70606053 147.32298633 11.48854838 146.1142984 -7.48754883 143.50488281 C-28.865262 140.53464034 -50.65779241 136.28937632 -67.6237793 122.02368164 C-75.38274843 114.50959692 -80.09450208 105.62998146 -83.1237793 95.33618164 C-83.48084961 94.12317383 -83.83791992 92.91016602 -84.20581055 91.66040039 C-87.51946226 78.04578791 -85.81377414 62.39323828 -81.1237793 49.33618164 C-75.02795877 33.85247195 -64.93504381 22.62203381 -51.2487793 13.39868164 C-35.62688947 3.75964324 -18.21746333 -0.22287667 0 0 Z " fill="#080A0A" transform="translate(606.123779296875,2288.663818359375)" />
<path d="M0 0 C2.44879954 -0.00435127 4.89575805 -0.04073243 7.34423828 -0.07861328 C21.62178713 -0.18053303 35.29677887 2.23887146 48.72314453 7.18310547 C49.76353882 7.56039795 49.76353882 7.56039795 50.82495117 7.9453125 C66.38680965 13.810452 80.43948408 24.49503222 90.34814453 37.87060547 C104.23948685 58.61247277 109.19409493 80.62405554 109.07519531 105.36010742 C109.07462985 107.02702833 109.07495038 108.69394974 109.07608032 110.36087036 C109.07664959 114.84553936 109.06496502 119.3300994 109.05093241 123.81474328 C109.03835329 128.51656036 109.03724892 133.21838048 109.03488159 137.92021179 C109.02868779 146.8056689 109.01230565 155.69107627 108.99218261 164.57651156 C108.96975792 174.69995079 108.95881372 184.8233925 108.94879174 194.94685042 C108.92793736 215.75479719 108.89239544 236.56269643 108.84814453 257.37060547 C98.94814453 257.37060547 89.04814453 257.37060547 78.84814453 257.37060547 C78.83879883 252.56788086 78.82945312 247.76515625 78.81982422 242.81689453 C78.78595182 226.89129181 78.73054381 210.96581666 78.66424179 195.04031754 C78.62458963 185.39129644 78.59212743 175.74235527 78.57714844 166.09326172 C78.56405973 157.67398699 78.53691335 149.25488914 78.49353147 140.8357141 C78.47107741 136.38607305 78.45522407 131.93664883 78.45626068 127.48694611 C78.5205052 89.52601621 78.5205052 89.52601621 63.86376953 54.97607422 C55.94517457 44.74021601 45.81564422 38.56506039 33.71923828 34.50732422 C14.34070741 28.62745059 -7.13688249 27.90115608 -26.58544922 33.76123047 C-37.8306736 37.53248033 -48.27994486 43.34433341 -56.15185547 52.37060547 C-66.80885985 66.84982167 -71.86901837 83.67890665 -72.50868165 101.52828896 C-72.58167485 105.07643749 -72.58837792 108.62286162 -72.58422852 112.17163086 C-72.59327661 113.77018475 -72.6036111 115.36873178 -72.6151123 116.9672699 C-72.64235137 121.24713754 -72.65192101 125.52687242 -72.65796638 129.80681539 C-72.6674376 134.30179921 -72.69364698 138.79668716 -72.7179718 143.29161072 C-72.7614024 151.77669101 -72.79009253 160.26175245 -72.81329519 168.74690956 C-72.84047359 178.4182761 -72.88437653 188.08954505 -72.92958391 197.76084149 C-73.02209395 217.63072377 -73.09172084 237.50059701 -73.15185547 257.37060547 C-83.05185547 257.37060547 -92.95185547 257.37060547 -103.15185547 257.37060547 C-103.24476715 235.40315434 -103.31599477 213.43575115 -103.35910416 191.46814251 C-103.37965971 181.26637232 -103.40764501 171.06472707 -103.45361328 160.86303711 C-103.493697 151.96299788 -103.51933909 143.06304921 -103.52820945 134.1629222 C-103.53338803 129.45782708 -103.54541032 124.75299084 -103.5747757 120.04797935 C-103.60228667 115.6033243 -103.61022991 111.15903037 -103.60428619 106.71429825 C-103.60537072 105.09841372 -103.61310933 103.48251484 -103.62867737 101.86670494 C-103.82991834 79.86749265 -98.4947308 58.67147617 -86.36474609 40.08349609 C-75.93912308 25.3600317 -60.88307057 13.66693525 -44.00732422 7.38232422 C-42.18429021 6.74251798 -40.35742465 6.11352256 -38.52685547 5.49560547 C-37.68082764 5.20935303 -36.8347998 4.92310059 -35.96313477 4.62817383 C-24.04219919 0.81278637 -12.42247107 -0.00245746 0 0 Z " fill="#060909" transform="translate(1849.15185546875,2288.62939453125)" />
<path d="M0 0 C12.86838823 8.08421133 21.17079413 18.42540142 27.2734375 32.24609375 C36.36993146 55.82862288 33.625 78.97503646 33.625 104.75 C-18.845 104.75 -71.315 104.75 -125.375 104.75 C-125.375 38.20454545 -125.375 38.20454545 -111.52734375 18.0625 C-101.9608218 5.58608171 -90.30871622 -1.74677074 -75.6875 -7.125 C-51.81516011 -14.02838187 -21.93979566 -12.1231435 0 0 Z " fill="#FDFDFD" transform="translate(954.375,2328.25)" />
<path d="M0 0 C9.9 0 19.8 0 30 0 C30 73.59 30 147.18 30 223 C80.82 223 131.64 223 184 223 C184 232.57 184 242.14 184 252 C123.28 252 62.56 252 0 252 C0 168.84 0 85.68 0 0 Z " fill="#060808" transform="translate(1128,2294)" />
<path d="M0 0 C25 0 25 0 35 4 C37.5 6.5 37.5 6.5 39 9 C39.35449219 9.58007812 39.70898438 10.16015625 40.07421875 10.7578125 C42.03588845 15.50886062 41.41408264 20.96199459 41 26 C39.5719814 29.87605047 37.58569305 32.79866575 35 36 C35.73992187 36.09925781 36.47984375 36.19851562 37.2421875 36.30078125 C40.32592403 37.08263513 41.76357004 38.08999456 44.125 40.1875 C45.11886719 41.04408203 45.11886719 41.04408203 46.1328125 41.91796875 C48.43396249 44.48389541 49.71563909 46.79692918 51 50 C51.69089266 55.89968146 51.99712769 62.45702763 49.75 68.0625 C48.88375 69.5165625 48.88375 69.5165625 48 71 C47.484375 71.86625 46.96875 72.7325 46.4375 73.625 C41.54911093 78.38804576 35.60918833 80.67816233 29 82 C19.43 82 9.86 82 0 82 C0 54.94 0 27.88 0 0 Z " fill="#FCFCFC" transform="translate(1301,2754)" />
<path d="M0 0 C24 0 24 0 34 4 C37.6706376 7.6050905 40.81400707 10.90023039 42 16 C42.7408315 21.66279419 42.27140968 26.15837828 39.875 31.375 C38.20435663 34.34399852 36.83651104 36.15208275 34.3125 38.5 C31.33979349 39.84613125 28.96690041 40.493626 25.79296875 41.09375 C24.89473389 41.26583984 23.99649902 41.43792969 23.07104492 41.61523438 C22.3876001 41.74220703 21.70415527 41.86917969 21 42 C23.10850667 45.29611888 25.21727023 48.59207327 27.32617188 51.88793945 C28.43251469 53.61720772 29.53853781 55.34668014 30.64453125 57.07617188 C33.77554849 61.97107278 36.90720769 66.86539794 40.06640625 71.7421875 C40.48801025 72.39364746 40.90961426 73.04510742 41.34399414 73.71630859 C42.42544246 75.38495938 43.50950019 77.0519182 44.59375 78.71875 C46 81 46 81 46 82 C43.36 82 40.72 82 38 82 C37.70456299 81.52916992 37.40912598 81.05833984 37.10473633 80.57324219 C34.58390967 76.55964901 32.05201378 72.55350901 29.5078125 68.5546875 C27.14525625 64.83567758 24.83526331 61.09008483 22.5546875 57.3203125 C21.43269407 55.50495956 20.31030948 53.68984831 19.1875 51.875 C18.67356689 51.00456055 18.15963379 50.13412109 17.63012695 49.23730469 C17.12698975 48.43454102 16.62385254 47.63177734 16.10546875 46.8046875 C15.67387451 46.09296387 15.24228027 45.38124023 14.79760742 44.64794922 C12.53365042 42.26109358 12.53365042 42.26109358 6 42 C6 55.2 6 68.4 6 82 C4.02 82 2.04 82 0 82 C0 54.94 0 27.88 0 0 Z " fill="#FAFAFA" transform="translate(530,2753)" />
<path d="M0 0 C2.1225304 3.1837956 3.32023228 6.15546563 4.6953125 9.7265625 C4.9600235 10.41063171 5.2247345 11.09470093 5.49746704 11.79949951 C6.37662736 14.07340122 7.25077665 16.34919617 8.125 18.625 C9.05706525 21.039885 9.9903728 23.45428768 10.92370605 25.86868286 C11.58079166 27.56877358 12.23743923 29.26903365 12.89367676 30.9694519 C15.38366666 37.41853773 17.89419888 43.85940819 20.4140625 50.296875 C20.77714508 51.2248288 21.14022766 52.15278259 21.51431274 53.1088562 C22.94506621 56.76506604 24.37604654 60.42118487 25.80914307 64.07647705 C26.80640789 66.62076958 27.80181307 69.16578278 28.796875 71.7109375 C29.09212067 72.46260193 29.38736633 73.21426636 29.69155884 73.9887085 C31.24239432 77.96004921 32.69169595 81.9401041 34 86 C31.69 86 29.38 86 27 86 C24.03 78.41 21.06 70.82 18 63 C6.45 63 -5.1 63 -17 63 C-19.97 70.59 -22.94 78.18 -26 86 C-28.31 86 -30.62 86 -33 86 C-31.00828291 80.66354282 -29.00537348 75.33133579 -27 70 C-26.63503418 69.02869141 -26.27006836 68.05738281 -25.89404297 67.05664062 C-17.4572548 44.62840871 -8.74077669 22.31115816 0 0 Z " fill="#F8F8F8" transform="translate(1973,2748)" />
<path d="M0 0 C2.1225304 3.1837956 3.32023228 6.15546563 4.6953125 9.7265625 C4.9600235 10.41063171 5.2247345 11.09470093 5.49746704 11.79949951 C6.37662736 14.07340122 7.25077665 16.34919617 8.125 18.625 C9.05706525 21.039885 9.9903728 23.45428768 10.92370605 25.86868286 C11.58079166 27.56877358 12.23743923 29.26903365 12.89367676 30.9694519 C15.38366666 37.41853773 17.89419888 43.85940819 20.4140625 50.296875 C20.77714508 51.2248288 21.14022766 52.15278259 21.51431274 53.1088562 C22.94506621 56.76506604 24.37604654 60.42118487 25.80914307 64.07647705 C26.80640789 66.62076958 27.80181307 69.16578278 28.796875 71.7109375 C29.09212067 72.46260193 29.38736633 73.21426636 29.69155884 73.9887085 C31.24239432 77.96004921 32.69169595 81.9401041 34 86 C31.69 86 29.38 86 27 86 C24.03 78.41 21.06 70.82 18 63 C6.45 63 -5.1 63 -17 63 C-19.97 70.59 -22.94 78.18 -26 86 C-28.31 86 -30.62 86 -33 86 C-31.00828291 80.66354282 -29.00537348 75.33133579 -27 70 C-26.63503418 69.02869141 -26.27006836 68.05738281 -25.89404297 67.05664062 C-17.4572548 44.62840871 -8.74077669 22.31115816 0 0 Z " fill="#F8F8F9" transform="translate(1454,2750)" />
<path d="M0 0 C2.1225304 3.1837956 3.32023228 6.15546563 4.6953125 9.7265625 C4.9600235 10.41063171 5.2247345 11.09470093 5.49746704 11.79949951 C6.37662736 14.07340122 7.25077665 16.34919617 8.125 18.625 C9.05706525 21.039885 9.9903728 23.45428768 10.92370605 25.86868286 C11.58079166 27.56877358 12.23743923 29.26903365 12.89367676 30.9694519 C15.38366666 37.41853773 17.89419888 43.85940819 20.4140625 50.296875 C20.77714508 51.2248288 21.14022766 52.15278259 21.51431274 53.1088562 C22.94506621 56.76506604 24.37604654 60.42118487 25.80914307 64.07647705 C26.80640789 66.62076958 27.80181307 69.16578278 28.796875 71.7109375 C29.09212067 72.46260193 29.38736633 73.21426636 29.69155884 73.9887085 C31.24239432 77.96004921 32.69169595 81.9401041 34 86 C31.69 86 29.38 86 27 86 C24.03 78.41 21.06 70.82 18 63 C6.45 63 -5.1 63 -17 63 C-19.97 70.59 -22.94 78.18 -26 86 C-28.31 86 -30.62 86 -33 86 C-31.00828291 80.66354282 -29.00537348 75.33133579 -27 70 C-26.63503418 69.02869141 -26.27006836 68.05738281 -25.89404297 67.05664062 C-17.4572548 44.62840871 -8.74077669 22.31115816 0 0 Z " fill="#F8F9F9" transform="translate(463,2749)" />
<path d="M0 0 C7.73444823 7.73444823 14.91733383 15.80706564 21.78515625 24.31640625 C23.95632827 26.94708557 26.20241357 29.47942424 28.5 32 C32.31363026 36.18841806 35.90011815 40.51803482 39.4609375 44.921875 C43.08169826 49.31135112 46.82194764 53.59398269 50.57128906 57.8737793 C51.10206055 58.48133057 51.63283203 59.08888184 52.1796875 59.71484375 C52.65132324 60.25230225 53.12295898 60.78976074 53.60888672 61.34350586 C55.14393336 63.17139134 56.56782959 65.09043946 58 67 C58.33 45.22 58.66 23.44 59 1 C61.31 1 63.62 1 66 1 C66 28.72 66 56.44 66 85 C61.79004482 81.49170402 58.98370704 79.00970176 55.75 74.875 C52.61873258 70.95566191 49.40185569 67.18710446 46 63.5 C41.90648909 59.05272888 38.07557501 54.45282537 34.28125 49.75 C31.93281032 46.91900422 29.49090098 44.20616402 27 41.5 C22.89046793 37.03311732 19.00498357 32.43368185 15.203125 27.703125 C12.5273616 24.42009614 9.75631377 21.2156994 7 18 C6.67 39.45 6.34 60.9 6 83 C4.02 83 2.04 83 0 83 C0 55.61 0 28.22 0 0 Z " fill="#F8F8F8" transform="translate(1859,2751)" />
<path d="M0 0 C7.73444823 7.73444823 14.91733383 15.80706564 21.78515625 24.31640625 C23.95632827 26.94708557 26.20241357 29.47942424 28.5 32 C32.31363026 36.18841806 35.90011815 40.51803482 39.4609375 44.921875 C43.08169826 49.31135112 46.82194764 53.59398269 50.57128906 57.8737793 C51.10206055 58.48133057 51.63283203 59.08888184 52.1796875 59.71484375 C52.65132324 60.25230225 53.12295898 60.78976074 53.60888672 61.34350586 C55.14393336 63.17139134 56.56782959 65.09043946 58 67 C58.33 45.22 58.66 23.44 59 1 C61.31 1 63.62 1 66 1 C66 28.72 66 56.44 66 85 C61.79004482 81.49170402 58.98370704 79.00970176 55.75 74.875 C52.61873258 70.95566191 49.40185569 67.18710446 46 63.5 C41.90648909 59.05272888 38.07557501 54.45282537 34.28125 49.75 C31.93281032 46.91900422 29.49090098 44.20616402 27 41.5 C22.89046793 37.03311732 19.00498357 32.43368185 15.203125 27.703125 C12.5273616 24.42009614 9.75631377 21.2156994 7 18 C6.67 39.45 6.34 60.9 6 83 C4.02 83 2.04 83 0 83 C0 55.61 0 28.22 0 0 Z " fill="#F8F8F8" transform="translate(1015,2750)" />
<path d="M0 0 C5.445 -0.0928125 5.445 -0.0928125 11 -0.1875 C12.12792969 -0.21481201 13.25585938 -0.24212402 14.41796875 -0.27026367 C21.2943554 -0.32663743 26.86974332 0.24340433 32.73974609 4.16113281 C35.69584708 6.46846275 37.62800542 8.53259551 39 12 C39.67416884 17.11897968 39.79866642 22.27194214 37.375 26.9375 C34.25820177 30.95652929 31.15373154 33.03630802 26.546875 35.09765625 C21.3972448 36.4077494 16.41255016 36.20900016 11.125 36.125 C7.45375 36.08375 3.7825 36.0425 0 36 C0 24.12 0 12.24 0 0 Z " fill="#090B0B" transform="translate(1307,2794)" />
<path d="M0 0 C1.98 0 3.96 0 6 0 C6 11.22 6 22.44 6 34 C19.86 34 33.72 34 48 34 C48 22.78 48 11.56 48 0 C49.98 0 51.96 0 54 0 C54 27.06 54 54.12 54 82 C52.02 82 50.04 82 48 82 C48 68.14 48 54.28 48 40 C34.14 40 20.28 40 6 40 C6 53.86 6 67.72 6 82 C4.02 82 2.04 82 0 82 C0 54.94 0 27.88 0 0 Z " fill="#FEFEFE" transform="translate(360,2753)" />
<path d="M0 0 C1.98 0 3.96 0 6 0 C6.00364563 0.81352936 6.00729126 1.62705872 6.01104736 2.46524048 C6.04897043 10.14546537 6.10587146 17.82520748 6.18390274 25.50512123 C6.22335197 29.45313769 6.25555271 33.40093197 6.27099609 37.34912109 C6.28617993 41.16194987 6.32065493 44.97416775 6.36830902 48.78672409 C6.38310524 50.23865819 6.39104001 51.69067951 6.39188385 53.14268875 C6.39426082 55.18253362 6.42139312 57.22070005 6.45410156 59.26025391 C6.46298401 60.41941315 6.47186646 61.57857239 6.48101807 62.77285767 C7.11399187 66.7088262 8.55410378 68.88700594 11 72 C13.96923643 74.28402802 16.32669293 74.92971924 20.03125 75.31640625 C27.31764628 75.58181403 27.31764628 75.58181403 34.125 73.3125 C37.086723 70.93024454 38.35374319 69.38407488 40 66 C40.46840421 62.83333926 40.46840421 62.83333926 40.43237305 59.3737793 C40.4425647 58.72931351 40.45275635 58.08484772 40.46325684 57.42085266 C40.49328582 55.30521844 40.50263669 53.19003771 40.51171875 51.07421875 C40.52857304 49.60161344 40.5467243 48.12902245 40.56611633 46.65644836 C40.6135415 42.79153926 40.64339895 38.92668823 40.66955566 35.06158447 C40.69939919 31.11320529 40.74591642 27.16502606 40.79101562 23.21679688 C40.87696346 15.47796396 40.94434627 7.73911637 41 0 C43.31 0 45.62 0 48 0 C48.09302962 8.31945357 48.1639307 16.63868672 48.20724869 24.95853329 C48.22804818 28.82255984 48.25622388 32.6862283 48.30175781 36.55004883 C48.3454913 40.28482604 48.36919443 44.01926068 48.37950897 47.75427437 C48.38685143 49.17313587 48.40118869 50.59198043 48.42292023 52.0106945 C48.5405365 60.01358919 48.56725776 67.15070981 44 74 C40.39161071 78.02302556 36.39303502 80.86170493 31.2265625 82.52734375 C24.83474893 83.88420242 18.8591114 83.59060353 12.6875 81.4375 C7.9294234 79.30430826 4.73023749 76.43663592 2 72 C0.0587339 67.96811164 -0.24383577 64.73839791 -0.22705078 60.28198242 C-0.22734283 59.62776306 -0.22763489 58.9735437 -0.22793579 58.29949951 C-0.22654982 56.15135121 -0.21102371 54.00355596 -0.1953125 51.85546875 C-0.19157975 50.3604603 -0.18873402 48.8654494 -0.18673706 47.37043762 C-0.17912118 43.44622986 -0.15949041 39.52217145 -0.1373291 35.59802246 C-0.11682649 31.5894574 -0.10772592 27.58086807 -0.09765625 23.57226562 C-0.07624245 15.71477541 -0.04213138 7.85740631 0 0 Z " fill="#F2F2F2" transform="translate(1500,2754)" />
<path d="M0 0 C1.98 0 3.96 0 6 0 C6.33 10.89 6.66 21.78 7 33 C10.41666016 29.42671875 10.41666016 29.42671875 13.90234375 25.78125 C16.13098678 23.4823612 18.36741455 21.19131848 20.60473633 18.90087891 C22.15210824 17.3083247 23.69129707 15.70777595 25.22192383 14.09912109 C27.42752815 11.78398822 29.66125759 9.4994885 31.90234375 7.21875 C32.5777269 6.49691528 33.25311005 5.77508057 33.94895935 5.03137207 C35.8987041 3.07961916 37.64820702 1.44458876 40 0 C43.10595366 -0.54906372 45.88951919 -0.46874081 49 0 C44.75789864 5.06711299 40.32282911 9.81223371 35.6328125 14.46484375 C34.95322479 15.14301651 34.27363708 15.82118927 33.57345581 16.51991272 C31.42632998 18.66149141 29.27573373 20.79954529 27.125 22.9375 C25.65862227 24.39885589 24.1924742 25.86044226 22.7265625 27.32226562 C19.15369 30.88417935 15.57770316 34.44293865 12 38 C12.39568621 40.57105188 12.93512717 41.92078024 14.60084534 43.95487976 C15.29145554 44.63581192 15.98206573 45.31674408 16.69360352 46.01831055 C17.47433731 46.79559006 18.25507111 47.57286957 19.0594635 48.373703 C19.90737961 49.2029982 20.75529572 50.0322934 21.62890625 50.88671875 C22.49313705 51.74433304 23.35736786 52.60194733 24.24778748 53.48554993 C27.01237356 56.22669846 29.78691193 58.95749596 32.5625 61.6875 C35.33990518 64.42992104 38.11519434 67.17443718 40.88792419 69.92158508 C42.61532853 71.63192103 44.34579368 73.3391718 46.07948303 75.0431366 C47.24585548 76.19487114 47.24585548 76.19487114 48.43579102 77.36987305 C49.12560562 78.04841843 49.81542023 78.72696381 50.52613831 79.42607117 C51.01251266 79.94546768 51.49888702 80.4648642 52 81 C52 81.33 52 81.66 52 82 C48.61713074 82.42702886 46.29588157 82.64272854 43 82 C39.63752515 79.78493093 37.07271051 76.9694579 34.375 74 C33.6634375 73.25621094 32.951875 72.51242188 32.21875 71.74609375 C28.95493915 68.30893031 25.80758344 64.78854807 22.7265625 61.1875 C17.72529946 55.5676321 12.31956517 50.31956517 7 45 C6.67 57.21 6.34 69.42 6 82 C4.02 82 2.04 82 0 82 C0 54.94 0 27.88 0 0 Z " fill="#FCFCFC" transform="translate(927,2751)" />
<path d="M0 0 C4.7034263 1.25045775 7.7965221 3.51445032 11 7.125 C13 10 13 10 13 12 C11.02 12.66 9.04 13.32 7 14 C6.2575 13.21625 5.515 12.4325 4.75 11.625 C2.33933935 9.32391483 1.00296672 8.19251386 -2 7 C-7.26713446 6.3157499 -11.68491358 6.36594047 -16.5 8.6875 C-19.0643135 11.05948999 -20.62496879 12.79159385 -22 16 C-22.58345476 18.95746492 -22.58345476 18.95746492 -22 22 C-20.01560711 25.77335315 -18.17598707 28.16443404 -14.42578125 30.125 C-13.06124153 30.76418262 -11.68977742 31.3887472 -10.3125 32 C-8.87172798 32.68205205 -7.43290593 33.36823893 -5.99609375 34.05859375 C-5.30628418 34.38843262 -4.61647461 34.71827148 -3.90576172 35.05810547 C2.92382141 38.43352588 8.70124448 42.64658506 13 49 C15.67730137 54.35460274 15.51685064 60.13958066 15 66 C14.2770903 69.8314214 13.07214065 72.7215667 10.55859375 75.71875 C6.30719541 79.74327557 1.72583343 81.89677413 -4 83 C-10.63415732 83.77654154 -16.06964479 83.23556344 -22.0625 80.20703125 C-24.83210305 78.48161322 -26.89253299 76.47937295 -29 74 C-29.86625 73.0409375 -29.86625 73.0409375 -30.75 72.0625 C-32.34701784 69.42742057 -32.65500586 67.0359484 -33 64 C-30 62 -30 62 -27 62 C-26.76925781 62.53109375 -26.53851562 63.0621875 -26.30078125 63.609375 C-24.18150426 68.19974572 -22.33591162 71.14742657 -18 74 C-13.34235849 76.32882076 -7.06768261 75.3959127 -2 75 C1.25119888 74.11233715 2.35676905 73.29080016 5 71 C7.53048664 66.75531273 8.5763901 62.87224726 8.33984375 57.98046875 C7.73016065 54.42748795 6.34033 51.67106026 4 49 C-1.77921874 44.69127786 -8.47657808 41.59620212 -14.90820312 38.39453125 C-20.59898409 35.46960325 -24.67051554 32.42974746 -27.8125 26.6875 C-29.62591522 21.05636853 -29.59850894 17.04197169 -27.9375 11.375 C-25.22745827 6.65428214 -21.75768244 3.78366656 -17.23046875 0.85546875 C-11.89909238 -1.18931483 -5.61288379 -0.4726639 0 0 Z " fill="#F7F8F8" transform="translate(2109,2752)" />
<path d="M0 0 C4.7034263 1.25045775 7.7965221 3.51445032 11 7.125 C13 10 13 10 13 12 C11.02 12.66 9.04 13.32 7 14 C6.2575 13.21625 5.515 12.4325 4.75 11.625 C2.33933935 9.32391483 1.00296672 8.19251386 -2 7 C-7.26713446 6.3157499 -11.68491358 6.36594047 -16.5 8.6875 C-19.0643135 11.05948999 -20.62496879 12.79159385 -22 16 C-22.58345476 18.95746492 -22.58345476 18.95746492 -22 22 C-20.01560711 25.77335315 -18.17598707 28.16443404 -14.42578125 30.125 C-13.06124153 30.76418262 -11.68977742 31.3887472 -10.3125 32 C-8.87172798 32.68205205 -7.43290593 33.36823893 -5.99609375 34.05859375 C-5.30628418 34.38843262 -4.61647461 34.71827148 -3.90576172 35.05810547 C2.92382141 38.43352588 8.70124448 42.64658506 13 49 C15.67730137 54.35460274 15.51685064 60.13958066 15 66 C14.2770903 69.8314214 13.07214065 72.7215667 10.55859375 75.71875 C6.30719541 79.74327557 1.72583343 81.89677413 -4 83 C-10.63415732 83.77654154 -16.06964479 83.23556344 -22.0625 80.20703125 C-24.83210305 78.48161322 -26.89253299 76.47937295 -29 74 C-29.86625 73.0409375 -29.86625 73.0409375 -30.75 72.0625 C-32.34701784 69.42742057 -32.65500586 67.0359484 -33 64 C-30 62 -30 62 -27 62 C-26.76925781 62.53109375 -26.53851562 63.0621875 -26.30078125 63.609375 C-24.18150426 68.19974572 -22.33591162 71.14742657 -18 74 C-13.34235849 76.32882076 -7.06768261 75.3959127 -2 75 C1.25119888 74.11233715 2.35676905 73.29080016 5 71 C7.53048664 66.75531273 8.5763901 62.87224726 8.33984375 57.98046875 C7.73016065 54.42748795 6.34033 51.67106026 4 49 C-1.77921874 44.69127786 -8.47657808 41.59620212 -14.90820312 38.39453125 C-20.59898409 35.46960325 -24.67051554 32.42974746 -27.8125 26.6875 C-29.62591522 21.05636853 -29.59850894 17.04197169 -27.9375 11.375 C-25.22745827 6.65428214 -21.75768244 3.78366656 -17.23046875 0.85546875 C-11.89909238 -1.18931483 -5.61288379 -0.4726639 0 0 Z " fill="#F7F8F8" transform="translate(895,2751)" />
<path d="M0 0 C13.2 0 26.4 0 40 0 C40 1.98 40 3.96 40 6 C28.78 6 17.56 6 6 6 C6 15.24 6 24.48 6 34 C17.22 34 28.44 34 40 34 C40 35.98 40 37.96 40 40 C28.78 40 17.56 40 6 40 C6 51.88 6 63.76 6 76 C17.22 76 28.44 76 40 76 C40 77.98 40 79.96 40 82 C26.8 82 13.6 82 0 82 C0 54.94 0 27.88 0 0 Z " fill="#FEFEFE" transform="translate(1370,2754)" />
<path d="M0 0 C2.64 0 5.28 0 8 0 C8.4031543 0.7206665 8.80630859 1.44133301 9.22167969 2.18383789 C10.73477367 4.88824353 12.24815316 7.59248914 13.76171875 10.29663086 C14.73198743 12.03031499 15.70193427 13.76417924 16.671875 15.49804688 C19.75842294 21.01203616 22.85115177 26.52132214 26 32 C29.03808814 29.35589009 30.82111029 26.08804181 32.7578125 22.6171875 C33.2805928 21.69487839 33.2805928 21.69487839 33.81393433 20.75393677 C34.92225746 18.79686776 36.023925 16.83615456 37.125 14.875 C38.23434322 12.90736786 39.34506401 10.94053134 40.45748901 8.97463989 C41.462842 7.19671591 42.46418197 5.41652451 43.46533203 3.63623047 C45 1 45 1 46 0 C48.33297433 -0.04092937 50.66705225 -0.04241723 53 0 C51.536333 3.90566325 49.72534939 7.46958816 47.69921875 11.11328125 C47.38096634 11.68652634 47.06271393 12.25977142 46.7348175 12.85038757 C46.06300599 14.05885162 45.38973588 15.26650584 44.71508789 16.47338867 C43.69749796 18.29460629 42.68531243 20.11874518 41.67382812 21.94335938 C36.33581467 31.53259 36.33581467 31.53259 34.6815033 33.83517456 C31.50013931 38.36542665 30.41037337 41.77797642 30.28105164 47.30993652 C30.28695061 48.62604919 30.28695061 48.62604919 30.29296875 49.96875 C30.27784744 50.88966431 30.26272614 51.81057861 30.24714661 52.75939941 C30.20448703 55.67318626 30.19545271 58.58593284 30.1875 61.5 C30.16433877 63.4870064 30.13897007 65.47398838 30.11132812 67.4609375 C30.04869061 72.30738275 30.01618567 77.15318605 30 82 C28.02 82 26.04 82 24 82 C24.05349609 80.90461914 24.10699219 79.80923828 24.16210938 78.68066406 C25.41535141 50.70951129 25.41535141 50.70951129 15.375 25.1875 C13.33558622 22.05507322 11.24235894 18.98619843 9.06152344 15.95068359 C0 2.98081478 0 2.98081478 0 0 Z " fill="#F9F9F9" transform="translate(1614,2754)" />
<path d="M0 0 C17.17930646 -0.57745568 17.17930646 -0.57745568 23.29296875 2.82421875 C26.11059115 4.76496095 27.48908528 5.84678667 29 9 C29.66523559 13.13270252 29.71540708 16.87139119 29 21 C27.5109868 24.05168783 25.84431913 26.14089513 23 28 C17.73012553 29.93745385 13.08032539 30.25521077 7.5625 30.125 C5.066875 30.08375 2.57125 30.0425 0 30 C0 20.1 0 10.2 0 0 Z " fill="#0B0D0D" transform="translate(536,2759)" />
<path d="M0 0 C17.14285714 -0.53571429 17.14285714 -0.53571429 21.8125 1.6875 C27.23868313 5.62414266 27.23868313 5.62414266 29 9 C29.80566382 14.01022186 29.55209494 17.83210686 27.375 22.4375 C24.63025745 25.39893276 22.76924498 26.53135274 19 28 C15.69436005 28.34636955 12.44381495 28.28420606 9.125 28.1875 C6.11375 28.125625 3.1025 28.06375 0 28 C0 18.76 0 9.52 0 0 Z " fill="#0A0D0D" transform="translate(1307,2760)" />
<path d="M0 0 C13.86 0 27.72 0 42 0 C42 1.98 42 3.96 42 6 C36.06 6 30.12 6 24 6 C24 31.08 24 56.16 24 82 C22.02 82 20.04 82 18 82 C18 56.92 18 31.84 18 6 C12.06 6 6.12 6 0 6 C0 4.02 0 2.04 0 0 Z " fill="#FEFEFE" transform="translate(1559,2754)" />
<path d="M0 0 C1.98 0 3.96 0 6 0 C6 25.08 6 50.16 6 76 C13.26 76 20.52 76 28 76 C28 77.98 28 79.96 28 82 C18.76 82 9.52 82 0 82 C0 54.94 0 27.88 0 0 Z " fill="#FEFEFE" transform="translate(2040,2752)" />
<path d="M0 0 C2.73469596 2.73469596 3.69441481 5.97493093 5.0390625 9.52734375 C5.32478119 10.27206436 5.61049988 11.01678497 5.90487671 11.78407288 C6.50758209 13.35919201 7.10758138 14.93534887 7.70507812 16.51245117 C8.62115274 18.92735807 9.54821404 21.33783573 10.4765625 23.74804688 C11.06056103 25.27839215 11.64391606 26.80898318 12.2265625 28.33984375 C12.50464752 29.06179428 12.78273254 29.78374481 13.06924438 30.52757263 C14.18658274 33.49475034 15 35.80131698 15 39 C5.43 39 -4.14 39 -14 39 C-13.19528551 34.17171307 -12.08876363 30.1813643 -10.3125 25.703125 C-10.04993408 25.02828064 -9.78736816 24.35343628 -9.5168457 23.65814209 C-8.68328983 21.51994122 -7.84166706 19.38501912 -7 17.25 C-6.43438654 15.80097995 -5.86927733 14.35176295 -5.3046875 12.90234375 C-1.21194657 2.42389313 -1.21194657 2.42389313 0 0 Z " fill="#0F1111" transform="translate(1454,2767)" />
<path d="M0 0 C2.73469596 2.73469596 3.69441481 5.97493093 5.0390625 9.52734375 C5.32478119 10.27206436 5.61049988 11.01678497 5.90487671 11.78407288 C6.50758209 13.35919201 7.10758138 14.93534887 7.70507812 16.51245117 C8.62115274 18.92735807 9.54821404 21.33783573 10.4765625 23.74804688 C11.06056103 25.27839215 11.64391606 26.80898318 12.2265625 28.33984375 C12.50464752 29.06179428 12.78273254 29.78374481 13.06924438 30.52757263 C14.18658274 33.49475034 15 35.80131698 15 39 C5.43 39 -4.14 39 -14 39 C-13.19528551 34.17171307 -12.08876363 30.1813643 -10.3125 25.703125 C-10.04993408 25.02828064 -9.78736816 24.35343628 -9.5168457 23.65814209 C-8.68328983 21.51994122 -7.84166706 19.38501912 -7 17.25 C-6.43438654 15.80097995 -5.86927733 14.35176295 -5.3046875 12.90234375 C-1.21194657 2.42389313 -1.21194657 2.42389313 0 0 Z " fill="#0F1111" transform="translate(463,2766)" />
<path d="M0 0 C2.73469596 2.73469596 3.69441481 5.97493093 5.0390625 9.52734375 C5.32478119 10.27206436 5.61049988 11.01678497 5.90487671 11.78407288 C6.50758209 13.35919201 7.10758138 14.93534887 7.70507812 16.51245117 C8.62115274 18.92735807 9.54821404 21.33783573 10.4765625 23.74804688 C11.06056103 25.27839215 11.64391606 26.80898318 12.2265625 28.33984375 C12.50464752 29.06179428 12.78273254 29.78374481 13.06924438 30.52757263 C14.18658274 33.49475034 15 35.80131698 15 39 C5.43 39 -4.14 39 -14 39 C-13.19528551 34.17171307 -12.08876363 30.1813643 -10.3125 25.703125 C-10.04993408 25.02828064 -9.78736816 24.35343628 -9.5168457 23.65814209 C-8.68328983 21.51994122 -7.84166706 19.38501912 -7 17.25 C-6.43438654 15.80097995 -5.86927733 14.35176295 -5.3046875 12.90234375 C-1.21194657 2.42389313 -1.21194657 2.42389313 0 0 Z " fill="#0F1111" transform="translate(1973,2765)" />
<path d="M0 0 C1.98 0 3.96 0 6 0 C6 27.06 6 54.12 6 82 C4.02 82 2.04 82 0 82 C0 54.94 0 27.88 0 0 Z " fill="#FEFEFE" transform="translate(509,2753)" />
<path d="M0 0 C1.98 0 3.96 0 6 0 C6 27.06 6 54.12 6 82 C4.02 82 2.04 82 0 82 C0 54.94 0 27.88 0 0 Z " fill="#FEFEFE" transform="translate(2019,2752)" />
<path d="M0 0 C1.98 0 3.96 0 6 0 C6 27.06 6 54.12 6 82 C4.02 82 2.04 82 0 82 C0 54.94 0 27.88 0 0 Z " fill="#FEFEFE" transform="translate(994,2751)" />
</svg>
